<svg width="16" height="16" viewBox="0 0 16 16" fill="none" xmlns="http://www.w3.org/2000/svg">
<path d="M15 3H4.5L4 0.8C3.9 0.3 3.5 0 3 0H0V2H2.2L4 10.2C4.1 10.7 4.5 11 5 11H13C13.4 11 13.8 10.7 13.9 10.3L15.9 4.3C16.1 3.8 15.8 3 15 3Z" fill="white"/>
<path d="M5 16C6.10457 16 7 15.1046 7 14C7 12.8954 6.10457 12 5 12C3.89543 12 3 12.8954 3 14C3 15.1046 3.89543 16 5 16Z" fill="white"/>
<path d="M13 16C14.1046 16 15 15.1046 15 14C15 12.8954 14.1046 12 13 12C11.8954 12 11 12.8954 11 14C11 15.1046 11.8954 16 13 16Z" fill="white"/>
</svg>
