<svg width="14" height="14" viewBox="0 0 14 14" fill="none" xmlns="http://www.w3.org/2000/svg">
<path fill-rule="evenodd" clip-rule="evenodd" d="M0.870949 0H13.0642C13.2952 0 13.5167 0.0921872 13.6801 0.256282C13.8434 0.420376 13.9352 0.642935 13.9352 0.875V10.2083C13.9352 10.4404 13.8434 10.663 13.6801 10.8271C13.5167 10.9911 13.2952 11.0833 13.0642 11.0833H0.870949C0.639959 11.0833 0.418429 10.9911 0.255095 10.8271C0.0917604 10.663 0 10.4404 0 10.2083V0.875C0 0.642935 0.0917604 0.420376 0.255095 0.256282C0.418429 0.0921872 0.639959 0 0.870949 0ZM12.6889 8.66457C12.7433 8.60987 12.7739 8.53569 12.7739 8.45833V1.45833C12.7739 1.38098 12.7433 1.30679 12.6889 1.25209C12.6344 1.1974 12.5606 1.16667 12.4836 1.16667H1.45158C1.37458 1.16667 1.30074 1.1974 1.2463 1.25209C1.19185 1.30679 1.16126 1.38098 1.16126 1.45833V8.45833C1.16126 8.53569 1.19185 8.60987 1.2463 8.66457C1.30074 8.71927 1.37458 8.75 1.45158 8.75H12.4836C12.5606 8.75 12.6344 8.71927 12.6889 8.66457ZM8.23141 11.9862C8.27005 12.0045 8.30421 12.031 8.33145 12.0641L9.55019 13.5411C9.5807 13.5848 9.59868 13.6361 9.60216 13.6894C9.60564 13.7427 9.5945 13.7959 9.56994 13.8433C9.54538 13.8906 9.50836 13.9303 9.46289 13.958C9.41743 13.9856 9.36529 14.0002 9.31214 14.0002H4.62121C4.56806 14.0002 4.51592 13.9856 4.47046 13.958C4.425 13.9303 4.38797 13.8906 4.36341 13.8433C4.33885 13.7959 4.32771 13.7427 4.33119 13.6894C4.33467 13.6361 4.35265 13.5848 4.38316 13.5411L5.60248 12.0641C5.62972 12.031 5.66388 12.0045 5.70252 11.9862C5.74116 11.968 5.78333 11.9585 5.82602 11.9585H8.10791C8.1506 11.9585 8.19277 11.968 8.23141 11.9862Z" fill="#837C99"/>
</svg>
