<svg width="12" height="14" viewBox="0 0 12 14" fill="none" xmlns="http://www.w3.org/2000/svg">
<path fill-rule="evenodd" clip-rule="evenodd" d="M8.43915 0.170917L11.5973 3.32908C11.7067 3.43845 11.7682 3.5868 11.7682 3.7415V12.8333C11.7682 13.1428 11.6453 13.4395 11.4265 13.6583C11.2077 13.8771 10.911 14 10.6016 14H1.26823C0.95881 14 0.662064 13.8771 0.443271 13.6583C0.224479 13.4395 0.101562 13.1428 0.101562 12.8333V1.16667C0.101562 0.857247 0.224479 0.560501 0.443271 0.341709C0.662064 0.122916 0.95881 0 1.26823 0H8.02673C8.18143 3.30385e-05 8.32977 0.0615129 8.43915 0.170917ZM10.5161 12.7479C10.5708 12.6932 10.6016 12.619 10.6016 12.5417V4.10375C10.6015 4.02654 10.5709 3.95249 10.5164 3.89783L7.8704 1.25183C7.81573 1.19731 7.74168 1.16668 7.66448 1.16667H1.5599C1.48254 1.16667 1.40835 1.1974 1.35366 1.25209C1.29896 1.30679 1.26823 1.38098 1.26823 1.45833V12.5417C1.26823 12.619 1.29896 12.6932 1.35366 12.7479C1.40835 12.8026 1.48254 12.8333 1.5599 12.8333H10.3099C10.3872 12.8333 10.4614 12.8026 10.5161 12.7479ZM2.6295 2.23608H4.57395C4.62552 2.23608 4.67497 2.29754 4.71144 2.40694C4.74791 2.51633 4.76839 2.66471 4.76839 2.81942C4.76839 2.97413 4.74791 3.1225 4.71144 3.2319C4.67497 3.34129 4.62552 3.40275 4.57395 3.40275H2.6295C2.57793 3.40275 2.52848 3.34129 2.49201 3.2319C2.45554 3.1225 2.43506 2.97413 2.43506 2.81942C2.43506 2.66471 2.45554 2.51633 2.49201 2.40694C2.52848 2.29754 2.57793 2.23608 2.6295 2.23608ZM3.01839 8.45825H8.85172C9.00643 8.45825 9.15481 8.51971 9.2642 8.62911C9.3736 8.7385 9.43506 8.88688 9.43506 9.04159C9.43506 9.19629 9.3736 9.34467 9.2642 9.45407C9.15481 9.56346 9.00643 9.62492 8.85172 9.62492H3.01839C2.86368 9.62492 2.71531 9.56346 2.60591 9.45407C2.49652 9.34467 2.43506 9.19629 2.43506 9.04159C2.43506 8.88688 2.49652 8.7385 2.60591 8.62911C2.71531 8.51971 2.86368 8.45825 3.01839 8.45825ZM8.85172 10.2083H3.01839C2.86368 10.2083 2.71531 10.2697 2.60591 10.3791C2.49652 10.4885 2.43506 10.6369 2.43506 10.7916C2.43506 10.9463 2.49652 11.0947 2.60591 11.2041C2.71531 11.3135 2.86368 11.3749 3.01839 11.3749H8.85172C9.00643 11.3749 9.15481 11.3135 9.2642 11.2041C9.3736 11.0947 9.43506 10.9463 9.43506 10.7916C9.43506 10.6369 9.3736 10.4885 9.2642 10.3791C9.15481 10.2697 9.00643 10.2083 8.85172 10.2083Z" fill="#837C99"/>
</svg>
