<svg width="7" height="12" viewBox="0 0 7 12" fill="none" xmlns="http://www.w3.org/2000/svg">
<path d="M0.172787 6.00361C0.172787 6.10476 0.192053 6.20108 0.230584 6.29259C0.273931 6.38411 0.336544 6.46598 0.418422 6.53823L5.77905 11.7905C5.92354 11.9302 6.09211 12 6.28477 12C6.41963 12 6.54004 11.9687 6.646 11.9061C6.75677 11.8435 6.84347 11.7568 6.90608 11.646C6.96869 11.54 7 11.4196 7 11.2848C7 11.0921 6.93016 10.9187 6.79049 10.7646L1.54545 5.64961L1.54545 6.35039L6.79049 1.22818C6.93016 1.08368 7 0.912703 7 0.715232C7 0.580373 6.96869 0.457556 6.90608 0.346779C6.84347 0.240819 6.75677 0.156532 6.646 0.0939193C6.54004 0.0313064 6.41963 -2.53689e-08 6.28477 -3.12638e-08C6.18362 -3.56849e-08 6.0897 0.0192655 6.00301 0.0577965C5.92113 0.0963275 5.84648 0.146899 5.77905 0.209512L0.411198 5.45455C0.252258 5.6183 0.172787 5.80132 0.172787 6.00361Z" fill="#E5E5E5"/>
</svg>
