<svg width="15" height="14" viewBox="0 0 15 14" fill="none" xmlns="http://www.w3.org/2000/svg">
<path d="M14.8477 3.49992C14.8481 3.33368 14.8011 3.17079 14.7123 3.03029C14.6234 2.88979 14.4964 2.77751 14.346 2.70658L10.3735 0.863248C10.1853 0.776351 9.97224 0.759146 9.77245 0.814702C9.57267 0.870257 9.39911 0.994962 9.28271 1.16658L7.03104 4.84742L5.98688 3.00408C5.921 2.91719 5.83208 2.8505 5.73021 2.81158C5.69013 2.77864 5.64718 2.74936 5.60188 2.72408L2.10188 0.974082C1.96926 0.907656 1.82176 0.876518 1.67361 0.88367C1.52546 0.890822 1.38165 0.936023 1.25604 1.01491C1.13174 1.09328 1.02917 1.2017 0.957809 1.33015C0.886444 1.45861 0.848581 1.60297 0.847712 1.74992V10.4183C0.845914 10.5766 0.888021 10.7324 0.969365 10.8683C1.05071 11.0043 1.16811 11.115 1.30854 11.1882L4.80854 13.1249C4.92982 13.1859 5.06362 13.2179 5.19938 13.2182C5.36003 13.2186 5.51761 13.1742 5.65438 13.0899C5.78686 13.0148 5.89745 12.9064 5.9752 12.7755C6.05296 12.6445 6.09519 12.4955 6.09771 12.3432V9.07075L13.611 13.1541C13.7437 13.2175 13.8902 13.2465 14.037 13.2383C14.1838 13.2302 14.3262 13.1851 14.451 13.1074C14.5766 13.0289 14.68 12.9197 14.7514 12.79C14.8229 12.6604 14.86 12.5146 14.8594 12.3666L14.8477 3.49992ZM4.93104 11.6024C4.93111 11.6278 4.92457 11.6527 4.91207 11.6747C4.89957 11.6968 4.88153 11.7152 4.85974 11.7282C4.83796 11.7411 4.81317 11.7482 4.78782 11.7486C4.76248 11.7491 4.73745 11.7429 4.71521 11.7308L2.17188 10.3307C2.12476 10.3063 2.08519 10.2695 2.05744 10.2243C2.02969 10.1791 2.0148 10.1271 2.01438 10.0741V2.49075C2.00914 2.46386 2.01158 2.43604 2.02142 2.41047C2.03126 2.3849 2.0481 2.36262 2.07002 2.34619C2.09194 2.32975 2.11804 2.31982 2.14534 2.31753C2.17264 2.31524 2.20003 2.32069 2.22438 2.33325L4.76188 3.60491C4.81118 3.6277 4.85313 3.66381 4.88302 3.70915C4.91291 3.7545 4.92954 3.80729 4.93104 3.86158V11.6024ZM6.25521 7.84575C6.20721 7.82089 6.16707 7.78317 6.13925 7.73682C6.11144 7.69047 6.09706 7.6373 6.09771 7.58325V5.61158C6.09889 5.58147 6.10936 5.55245 6.1277 5.52854C6.14604 5.50462 6.17133 5.48697 6.20011 5.47802C6.22889 5.46906 6.25973 5.46925 6.2884 5.47854C6.31707 5.48783 6.34216 5.50578 6.36021 5.52991L8.36104 8.74992C8.38126 8.77655 8.39172 8.80932 8.39065 8.84274C8.38959 8.87616 8.37707 8.9082 8.35519 8.93349C8.33332 8.95879 8.30342 8.97579 8.2705 8.98166C8.23758 8.98754 8.20365 8.98192 8.17438 8.96575L6.25521 7.84575ZM7.84771 6.02575C7.81384 5.97692 7.79569 5.91892 7.79569 5.8595C7.79569 5.80008 7.81384 5.74207 7.84771 5.69325L10.0177 2.12908C10.0376 2.10138 10.0666 2.08153 10.0997 2.073C10.1327 2.06448 10.1677 2.06781 10.1985 2.08241L13.2727 3.49992C13.2917 3.50843 13.3086 3.52091 13.3224 3.5365C13.3361 3.5521 13.3464 3.57046 13.3525 3.59035C13.3585 3.61024 13.3603 3.6312 13.3576 3.65182C13.3549 3.67244 13.3479 3.69225 13.3369 3.70992L9.98854 9.07075C9.97511 9.09 9.95721 9.10573 9.93639 9.11658C9.91558 9.12744 9.89244 9.13311 9.86896 9.13311C9.84548 9.13311 9.82235 9.12744 9.80153 9.11658C9.78071 9.10573 9.76282 9.09 9.74938 9.07075L7.84771 6.02575ZM13.681 11.6374C13.6806 11.662 13.674 11.686 13.6618 11.7073C13.6496 11.7286 13.6322 11.7464 13.6113 11.7592C13.5903 11.772 13.5665 11.7793 13.542 11.7805C13.5175 11.7816 13.4931 11.7766 13.471 11.7657L10.7294 10.3832C10.7117 10.3741 10.6961 10.3615 10.6835 10.3461C10.6709 10.3307 10.6616 10.3129 10.6561 10.2938C10.6507 10.2746 10.6492 10.2546 10.6517 10.2349C10.6543 10.2152 10.6609 10.1962 10.671 10.1791L13.4127 5.78658C13.4278 5.76124 13.4503 5.74109 13.4771 5.72878C13.5039 5.71647 13.5339 5.71259 13.5629 5.71764C13.592 5.7227 13.6189 5.73646 13.6399 5.7571C13.661 5.77774 13.6754 5.80429 13.681 5.83325V11.6374Z" fill="#837C99"/>
</svg>
