<svg width="10" height="10" viewBox="0 0 10 10" fill="none" xmlns="http://www.w3.org/2000/svg">
<path d="M9 9.00011H1V1.00001H4.49999C4.77614 1.00001 5 0.776152 5 0.500006C5 0.22386 4.77614 0 4.49999 0H1C0.447715 0 0 0.447715 0 1V9.00012C0 9.55241 0.447715 10.0001 1 10.0001H9C9.55228 10.0001 10 9.55241 10 9.00012V5.50006C10 5.22392 9.77614 5.00006 9.5 5.00006C9.22386 5.00006 9 5.22392 9 5.50006V9.00011ZM6.50001 0C6.22386 0 6 0.22386 6 0.500006C6 0.776152 6.22386 1.00001 6.50001 1.00001H8.295L3.2325 6.06258C3.03782 6.25726 3.03782 6.5729 3.2325 6.76758C3.42718 6.96226 3.74282 6.96226 3.9375 6.76758L9 1.70502V3.50005C9 3.77619 9.22386 4.00005 9.5 4.00005C9.77614 4.00005 10 3.77619 10 3.50005V1C10 0.447716 9.55229 0 9 0H6.50001Z" fill="#837C99"/>
</svg>
