<svg width="12" height="10" viewBox="0 0 12 10" fill="none" xmlns="http://www.w3.org/2000/svg">
<path d="M6.834 0.128011C6.76212 0.0634888 6.67309 0.0211671 6.57767 0.00616194C6.48226 -0.0088432 6.38453 0.00411054 6.29632 0.0434574C6.20811 0.0828043 6.13318 0.14686 6.08059 0.227881C6.02801 0.308902 6.00002 0.403421 6 0.500011V4.00001H1C0.734784 4.00001 0.48043 4.10537 0.292893 4.2929C0.105357 4.48044 0 4.7348 0 5.00001C0 5.26523 0.105357 5.51958 0.292893 5.70712C0.48043 5.89465 0.734784 6.00001 1 6.00001H6V9.50001C6.00002 9.5966 6.02801 9.69112 6.08059 9.77214C6.13318 9.85316 6.20811 9.91722 6.29632 9.95656C6.38453 9.99591 6.48226 10.0089 6.57767 9.99386C6.67309 9.97886 6.76212 9.93653 6.834 9.87201L11.834 5.37201C11.8862 5.32512 11.928 5.26776 11.9566 5.20367C11.9851 5.13958 11.9999 5.07019 11.9999 5.00001C11.9999 4.92983 11.9851 4.86044 11.9566 4.79635C11.928 4.73226 11.8862 4.6749 11.834 4.62801L6.834 0.128011Z" fill="#5868EA"/>
</svg>
