<svg width="7" height="12" viewBox="0 0 7 12" fill="none" xmlns="http://www.w3.org/2000/svg">
<path d="M7.00006 6.00361C7.00006 6.10476 6.9808 6.20108 6.94227 6.29259C6.89892 6.38411 6.83631 6.46598 6.75443 6.53823L1.3938 11.7905C1.24931 11.9302 1.08074 12 0.888084 12C0.753225 12 0.632816 11.9687 0.526856 11.9061C0.416079 11.8435 0.329384 11.7568 0.266771 11.646C0.204159 11.54 0.172852 11.4196 0.172852 11.2848C0.172852 11.0921 0.242689 10.9187 0.382364 10.7646L5.6274 5.64961L5.6274 6.35039L0.382364 1.22818C0.242689 1.08368 0.172852 0.912703 0.172852 0.715232C0.172852 0.580373 0.204158 0.457556 0.266771 0.346779C0.329384 0.240819 0.416079 0.156532 0.526855 0.0939193C0.632815 0.0313064 0.753225 -2.53689e-08 0.888083 -3.12638e-08C0.989227 -3.56849e-08 1.08315 0.0192655 1.16984 0.0577965C1.25172 0.0963275 1.32637 0.146899 1.3938 0.209512L6.76165 5.45455C6.92059 5.6183 7.00006 5.80132 7.00006 6.00361Z" fill="#E5E5E5"/>
</svg>
