<svg width="19" height="16" viewBox="0 0 19 16" fill="none" xmlns="http://www.w3.org/2000/svg">
<path d="M17.8144 1.29383C17.8007 1.23113 17.7707 1.17318 17.7276 1.12584C17.6844 1.0785 17.6296 1.04346 17.5686 1.02426C17.3465 0.980079 17.1167 0.996448 16.9031 1.07167C16.9031 1.07167 2.09339 6.41987 1.24759 7.01207C1.06589 7.13943 1.00462 7.21372 0.974336 7.30074C0.827852 7.72526 1.2835 7.9078 1.2835 7.9078L5.10055 9.15729C5.16509 9.16893 5.23145 9.16505 5.29421 9.14597C6.16185 8.59481 14.0269 3.6032 14.484 3.43552C14.5544 3.41429 14.6086 3.43552 14.5946 3.48858C14.4129 4.1289 7.61613 10.1945 7.57881 10.2313C7.56062 10.2463 7.54646 10.2656 7.5376 10.2875C7.52875 10.3093 7.52548 10.3331 7.5281 10.3566L7.17175 14.1008C7.17175 14.1008 7.02245 15.2661 8.18235 14.1008C9.00492 13.2737 9.79438 12.5888 10.1888 12.2556C11.5015 13.1661 12.9135 14.173 13.5227 14.7001C13.6252 14.7997 13.7466 14.8776 13.8797 14.929C14.0128 14.9804 14.1548 15.0044 14.2974 14.9994C14.4729 14.9779 14.6377 14.9032 14.7699 14.7853C14.9021 14.6673 14.9955 14.5118 15.0375 14.3392C15.0375 14.3392 17.7348 3.42703 17.825 1.96528C17.8341 1.82377 17.8461 1.73038 17.8475 1.63203C17.8519 1.51831 17.8407 1.40452 17.8144 1.29383Z" stroke="#837C99"/>
</svg>
