<svg width="18" height="14" viewBox="0 0 18 14" fill="none" xmlns="http://www.w3.org/2000/svg">
<path d="M16.0555 3.79502C16.0555 3.79503 16.0555 3.79503 16.0555 3.79503C16.0017 3.90903 15.9734 4.03331 15.9723 4.15926L15.9723 4.15926V4.16344L15.9723 4.80681L15.9723 4.80815C15.9762 6.25113 15.6246 7.67254 14.9491 8.94567C14.2742 10.2175 13.297 11.3018 12.1047 12.1023C10.6541 13.0392 8.96062 13.525 7.23664 13.499C5.39485 13.4567 3.58017 13.0563 1.89238 12.3217C2.86475 12.2726 3.8229 12.057 4.72512 11.683C4.85174 11.6338 4.96072 11.548 5.03833 11.4368L4.64034 11.1591L5.03833 11.4368C5.11866 11.3216 5.16159 11.1847 5.16159 11.0446C5.16159 10.9045 5.11866 10.7675 5.03833 10.6524L4.64034 10.93L5.03833 10.6524C4.95798 10.5372 4.84401 10.4493 4.71164 10.4011L4.67106 10.3862L4.62853 10.3786C4.19753 10.3014 3.79142 10.1203 3.44505 9.8506C3.13045 9.60566 2.87365 9.29426 2.69254 8.9388L2.9513 8.8358L2.9685 8.82895L2.98514 8.82085C3.10098 8.76449 3.19833 8.67666 3.2663 8.56771L3.2663 8.5677C3.33426 8.45878 3.37019 8.33304 3.37019 8.20486C3.37019 8.07668 3.33426 7.95094 3.2663 7.84201C3.20499 7.74374 3.11977 7.66264 3.01865 7.60633C2.60802 7.34289 2.26048 6.99094 2.00135 6.57572C1.76535 6.19757 1.60815 5.7757 1.53872 5.33566L2.16904 5.46004L2.18036 5.46228L2.19178 5.46399C2.31627 5.48263 2.44342 5.46652 2.55926 5.4175L16.0555 3.79502ZM16.0555 3.79502C16.1091 3.68124 16.1868 3.58035 16.2834 3.49943M16.0555 3.79502L16.2834 3.49943M16.2834 3.49943C16.2834 3.49942 16.2834 3.49941 16.2834 3.4994C16.2836 3.49925 16.2838 3.4991 16.284 3.49896M16.2834 3.49943L16.284 3.49896M16.284 3.49896L17.2974 2.64841M16.284 3.49896L17.2974 2.64841M16.3917 1.33958L16.3917 1.3396L16.585 0.946785L15.4026 1.27941C15.2739 1.3166 15.1383 1.32344 15.0064 1.29936C14.8735 1.27508 14.7482 1.22006 14.6404 1.13884L14.9306 0.753653L14.6404 1.13884C14.0898 0.724031 13.4206 0.5 12.733 0.5C11.8902 0.5 11.0815 0.836317 10.4849 1.43572C9.8882 2.0352 9.55256 2.84876 9.55256 3.69755V3.96267V3.96377L16.3917 1.33958ZM16.3917 1.33958L16.3885 1.34621C16.3335 1.46235 16.3049 1.5892 16.3046 1.71764C16.3044 1.8461 16.3325 1.97307 16.3871 2.08941C16.4417 2.20577 16.5214 2.30869 16.6207 2.39063C16.7198 2.47242 16.8358 2.53124 16.9606 2.56273C16.9608 2.56279 16.9611 2.56286 16.9613 2.56292L17.2974 2.64841M16.3917 1.33958L17.2974 2.64841M2.44552 1.06064L2.4655 1.07437L2.44552 1.06064ZM2.44552 1.06064L2.40766 1.03462M2.44552 1.06064L2.40766 1.03462M2.40766 1.03462L2.18294 0.880172L2.40766 1.03462ZM1.28404 12.3224L1.28536 12.3226L1.28404 12.3224ZM2.42898 1.11659L2.42961 1.11602L2.42898 1.11659ZM2.91016 4.49138C2.48038 3.53446 2.35539 2.46959 2.54878 1.44196L2.55927 5.41749C2.67509 5.36848 2.77495 5.28855 2.84814 5.18675L2.44216 4.89489L2.84814 5.18674C2.92131 5.08495 2.96508 4.96514 2.97488 4.84041C2.98432 4.72039 2.962 4.6 2.91016 4.49138Z" stroke="#837C99"/>
</svg>
