<svg width="225" height="107" viewBox="0 0 225 107" fill="none" xmlns="http://www.w3.org/2000/svg">
<path d="M224.855 106.556H165.562V88.038C179.38 74.8951 195.136 83.9453 196.178 93.7183C211.852 83.5087 226.634 91.6807 224.855 106.556Z" fill="#404EED"/>
<path d="M55.4433 106.552H0C2.38411 102.327 4.34962 99.803 6.91111 99.3574C9.18605 98.9615 11.8659 100.221 15.583 103.428C15.5512 101.049 15.9652 93.2406 22.4077 88.5249C25.6198 86.1733 29.3597 85.5052 32.4172 86.7375C33.5809 87.2 34.6107 87.9449 35.4132 88.9061C36.2157 89.8668 36.7654 91.0132 37.0125 92.2404C44.5287 86.9238 48.2139 88.1928 51.2444 90.571C54.2743 92.9497 55.6941 99.6121 55.4433 106.552Z" fill="#808AFF"/>
<path d="M170.707 66.2H41.3164V106.556H170.707V66.2Z" fill="#5865F2"/>
<path d="M41.3164 78.6607L170.712 68.2506V66.2H41.3164V78.6607Z" fill="#4B59F2"/>
<path d="M170.708 66.2H169.766V106.556H170.708V66.2Z" fill="#3543DE"/>
<path d="M159.032 66.2H158.09V106.556H159.032V66.2Z" fill="#3543DE"/>
<path d="M147.348 66.2H146.406V106.556H147.348V66.2Z" fill="#3543DE"/>
<path d="M135.68 66.2H134.738V106.556H135.68V66.2Z" fill="#3543DE"/>
<path d="M123.996 66.2H123.055V106.556H123.996V66.2Z" fill="#3543DE"/>
<path d="M112.329 66.2H111.387V106.556H112.329V66.2Z" fill="#3543DE"/>
<path d="M100.645 66.2H99.7031V106.556H100.645V66.2Z" fill="#3543DE"/>
<path d="M88.9649 66.2H88.0234V106.556H88.9649V66.2Z" fill="#3543DE"/>
<path d="M77.293 66.2H76.3516V106.556H77.293V66.2Z" fill="#3543DE"/>
<path d="M65.6139 66.2H64.6719V106.556H65.6139V66.2Z" fill="#3543DE"/>
<path d="M53.9381 66.2H52.9961V106.556H53.9381V66.2Z" fill="#3543DE"/>
<path d="M42.2582 66.2H41.3164V106.556H42.2582V66.2Z" fill="#3543DE"/>
<path d="M76.4219 28.8812C75.2071 24.82 74.561 22.8919 76.763 21.6958C78.9655 20.4997 85.6262 21.3321 88.747 22.064C91.8684 22.7965 92.3326 23.5922 90.2848 26.6391L76.4219 28.8812Z" fill="#FFE75C"/>
<path d="M75.0054 65.1949C74.5231 53.1753 74.814 43.2204 75.2234 37.9083C73.2265 36.6077 72.298 35.5759 71.9066 35.0343C71.8253 34.9247 71.7812 34.7915 71.7812 34.6548C71.7812 34.5181 71.8253 34.3848 71.9066 34.2747C75.0918 30.3322 77.7716 26.8985 80.597 25.2844C83.4225 23.6698 87.2713 23.2648 93.4136 29.3772C93.448 29.4111 93.4751 29.4511 93.4937 29.4958C93.5124 29.5404 93.522 29.5878 93.522 29.6364C93.522 29.6844 93.5124 29.7324 93.4937 29.777C93.4751 29.8211 93.448 29.8617 93.4136 29.8956C92.6173 30.6597 91.8622 31.2601 91.8622 31.2601C93.1182 33.479 94.9243 36.872 94.9243 36.872H96.3345C97.2488 36.8714 98.1253 37.2334 98.7731 37.8778C99.4214 38.5217 99.7874 39.3965 99.7924 40.3097C99.7924 43.0702 99.178 46.3949 97.8768 50.665C103.601 55.3129 102.236 65.1678 102.236 65.1678L75.0054 65.1949Z" fill="#29CC7A"/>
<path d="M97.8982 50.6872C98.0846 50.0779 98.2529 49.4911 98.4121 48.9229L93.9354 51.4061C93.9354 51.4061 86.8466 46.6216 74.9173 43.6431C74.7128 49.1731 74.6671 56.6629 75.0082 65.1946L102.225 65.1675C102.225 65.1675 103.604 55.3126 97.8982 50.6872Z" fill="#8CD9FF"/>
<path d="M99.0524 51.797C98.7034 51.3943 98.3194 51.0233 97.906 50.6872C98.0923 50.0779 98.2606 49.4911 98.4199 48.9229L93.9335 51.4061C93.9335 51.4061 86.8453 46.6216 74.9154 43.6431C74.8883 44.3434 74.8657 45.0708 74.8477 45.8303C83.9786 49.6006 88.8654 56.0812 89.4567 65.1811H96.1993C97.387 59.9599 98.3335 55.399 99.0524 51.797Z" fill="#BAE8FF"/>
<path d="M78.5242 40.1915C78.562 40.1921 78.5998 40.1825 78.6332 40.1644C78.6665 40.1503 78.6964 40.1288 78.7207 40.1023C78.745 40.0757 78.763 40.0441 78.7743 40.0096L81.3541 31.6553C81.3739 31.5903 81.3677 31.5197 81.3361 31.4593C81.3044 31.3989 81.2508 31.3537 81.1858 31.3328C81.1192 31.3125 81.0475 31.3192 80.9865 31.352C80.9249 31.3842 80.8792 31.4395 80.8583 31.5056L78.3604 39.5821C77.2806 39.1275 76.2454 38.5746 75.2667 37.9314H75.2254C75.2254 38.1222 75.1938 38.3176 75.1797 38.5227C76.2154 39.1665 77.302 39.7245 78.4287 40.1915C78.4598 40.1977 78.4925 40.1977 78.5242 40.1915Z" fill="black"/>
<path d="M89.5508 26.7485L78.9453 27.5398C90.8243 29.7999 91.3202 30.1043 89.5508 26.7485Z" fill="black"/>
<path d="M95.4541 57.8683L94.3076 47.3407C94.2873 47.1532 94.1964 46.9804 94.0535 46.8573C93.9112 46.7342 93.7271 46.6698 93.539 46.6766L92.4061 46.7172L91.8962 45.7442C91.751 45.4674 91.5082 45.2551 91.2145 45.1472C90.9214 45.0399 90.5983 45.045 90.3086 45.1619C90.0048 45.2822 89.7603 45.5154 89.6258 45.8125C87.4058 50.5965 86.2955 58.4641 86.1001 59.9652C86.0911 60.0352 86.1074 60.1064 86.1453 60.1663C86.1837 60.2261 86.2418 60.2707 86.309 60.2922L92.6789 62.3479C92.7162 62.3592 92.7551 62.3609 92.7935 62.3535C92.8314 62.3462 92.867 62.3298 92.8975 62.3055C92.928 62.2818 92.9517 62.2508 92.9675 62.2152C92.9833 62.1796 92.9906 62.1412 92.9884 62.1022L92.7382 59.1102L95.113 58.3506C95.218 58.324 95.3101 58.2608 95.3728 58.1721C95.4349 58.084 95.4643 57.9761 95.4541 57.8683Z" fill="#EB459F"/>
<path d="M88.969 60.0194H88.9419C88.9029 60.016 88.8651 60.0047 88.8306 59.9866C88.7956 59.9685 88.7651 59.9437 88.7403 59.9138C88.7154 59.8838 88.6968 59.8494 88.6849 59.8121C88.6736 59.7748 88.6697 59.7353 88.673 59.6963L89.6518 49.437C89.6585 49.3585 89.6969 49.2862 89.7574 49.236C89.8178 49.1857 89.8963 49.1614 89.9748 49.1688C90.0527 49.1755 90.125 49.2139 90.1759 49.2744C90.2261 49.3348 90.2504 49.4133 90.2431 49.4912L89.2649 59.7511C89.2581 59.8245 89.2237 59.8929 89.1689 59.9426C89.1141 59.9923 89.043 60.0199 88.969 60.0194Z" fill="#D11583"/>
<path d="M86.8371 34.2209C87.2449 34.056 87.3138 33.2766 86.9913 32.4803C86.6694 31.684 86.0775 31.1724 85.6698 31.3373C85.262 31.5022 85.1931 32.2816 85.5156 33.0779C85.8375 33.8736 86.4294 34.3858 86.8371 34.2209Z" fill="black"/>
<path d="M88.1739 37.654H88.1332C87.9638 37.6512 87.7978 37.6083 87.6487 37.5292C87.499 37.4501 87.3702 37.3372 87.2731 37.1988C87.115 36.9187 87.0218 36.6064 87.0009 36.2851C86.9794 35.9643 87.0303 35.6424 87.15 35.3436C87.5278 34.1655 88.515 33.2427 89.3661 33.2924C89.5344 33.2958 89.6993 33.3393 89.8478 33.4178C89.9963 33.4969 90.1245 33.6098 90.2211 33.7471C90.3792 34.0277 90.4724 34.3401 90.4939 34.6608C90.5148 34.9822 90.4639 35.3041 90.3442 35.6029C89.9754 36.7668 89.043 37.654 88.1739 37.654ZM89.3248 33.8792C88.7974 33.8792 88.0327 34.5247 87.7187 35.5164C87.6295 35.7282 87.5871 35.9569 87.5939 36.1874C87.6012 36.4172 87.6577 36.6426 87.7599 36.8487C87.8034 36.9131 87.8616 36.9662 87.9293 37.0034C87.9977 37.0401 88.0734 37.0605 88.1513 37.0627C88.6788 37.0627 89.457 36.4257 89.78 35.4255C89.8687 35.2126 89.9105 34.9827 89.9026 34.7518C89.8947 34.5213 89.8376 34.2949 89.7343 34.0882C89.6925 34.0232 89.6343 33.9696 89.566 33.9329C89.4977 33.8962 89.4209 33.8775 89.3429 33.8792H89.3248Z" fill="white"/>
<path d="M92.5762 37.654H92.5356C92.3661 37.6512 92.2001 37.6088 92.0504 37.5298C91.9013 37.4507 91.7726 37.3372 91.6754 37.1988C91.5173 36.9187 91.4241 36.6064 91.4032 36.2851C91.3818 35.9643 91.4326 35.6424 91.5523 35.3436C91.9301 34.1655 92.9173 33.2427 93.7639 33.2924C93.9328 33.2964 94.0982 33.3393 94.2473 33.4184C94.3964 33.4974 94.5258 33.6098 94.6235 33.7471C94.7816 34.0277 94.8748 34.3401 94.8962 34.6608C94.9171 34.9822 94.8663 35.3041 94.7466 35.6029C94.3733 36.7668 93.4273 37.654 92.5762 37.654ZM93.7227 33.8792C93.1997 33.8792 92.435 34.5247 92.1165 35.5164C92.0278 35.7288 91.9861 35.9575 91.994 36.1874C92.0019 36.4178 92.0595 36.6431 92.1623 36.8487C92.2052 36.9136 92.2633 36.9667 92.3311 37.004C92.3995 37.0413 92.4757 37.0616 92.5536 37.0627C93.0811 37.0627 93.8593 36.4257 94.1824 35.4255C94.271 35.2126 94.3128 34.9827 94.3049 34.7518C94.297 34.5213 94.24 34.2949 94.1366 34.0882C94.0948 34.0232 94.0367 33.9696 93.9683 33.9329C93.9 33.8962 93.8232 33.8775 93.7458 33.8792H93.7227Z" fill="white"/>
<path d="M91.2859 34.0621C91.5677 33.948 91.5456 33.2364 91.2367 32.4729C90.9272 31.7094 90.4483 31.1825 90.1665 31.2965C89.8847 31.4106 89.9067 32.1222 90.2156 32.8857C90.5251 33.6493 91.004 34.1762 91.2859 34.0621Z" fill="black"/>
<path d="M94.1665 42.1015C91.8775 42.1083 89.6563 41.3244 87.8791 39.882C86.0317 38.3724 86.7687 38.1815 87.9333 38.168C89.0984 38.1539 94.6442 38.3408 96.2594 38.5859C97.8746 38.8316 98.1429 41.9789 94.1665 42.1015Z" fill="#912869"/>
<path d="M94.1665 42.1015C91.8775 42.1083 89.6563 41.3244 87.8791 39.882C86.0317 38.3724 86.7687 38.1815 87.9333 38.168C89.0984 38.1539 94.6442 38.3408 96.2594 38.5859C97.8746 38.8316 98.1429 41.9789 94.1665 42.1015Z" fill="#611B46"/>
<path d="M94.0507 45.7262C93.9767 45.7262 93.9056 45.6991 93.8508 45.6494C93.796 45.5997 93.7621 45.5313 93.7548 45.4579L93.6458 44.3527C93.6385 44.2725 93.6633 44.1923 93.7141 44.1296C93.7678 44.0703 93.8429 44.0342 93.9231 44.0297C94.7183 43.9743 95.4931 43.7546 96.1985 43.3842C96.2324 43.365 96.2696 43.3525 96.3086 43.348C96.3476 43.3435 96.3865 43.3463 96.4244 43.357C96.4617 43.3678 96.4972 43.3853 96.5277 43.4096C96.5582 43.4339 96.5842 43.4638 96.6034 43.4977C96.622 43.5316 96.6345 43.5694 96.639 43.6078C96.6435 43.6468 96.6407 43.6863 96.63 43.7236C96.6198 43.7614 96.6017 43.7964 96.5774 43.8269C96.5537 43.858 96.5232 43.8834 96.4893 43.9026C95.7992 44.2657 95.0481 44.5001 94.2738 44.5939L94.3557 45.3986C94.363 45.4771 94.3399 45.5551 94.2907 45.6161C94.241 45.6776 94.1699 45.7172 94.092 45.7262H94.0507Z" fill="black"/>
<path d="M95.2611 41.9744C93.664 40.4281 91.4987 39.2455 87.4766 39.5364C90.9345 42.7018 94.506 42.1743 95.2611 41.9744Z" fill="#EB459F"/>
<path d="M91.965 34.7661H90.168V35.3619H91.965V34.7661Z" fill="white"/>
<path d="M87.4296 35.7206C87.3924 35.7217 87.3545 35.7144 87.3206 35.698L79.6315 32.5919C79.5163 32.5473 79.3915 32.5309 79.2689 32.5445C79.1458 32.5586 79.0278 32.6015 78.9256 32.671C78.8228 32.7404 78.7392 32.8336 78.6805 32.9426C78.6217 33.0516 78.5907 33.173 78.5895 33.2967C78.5907 33.4435 78.6342 33.587 78.7149 33.7101C78.7957 33.8326 78.9103 33.9292 79.0447 33.988L79.5496 34.2155C79.5852 34.2314 79.6174 34.2545 79.6439 34.2833C79.6705 34.3116 79.6914 34.3449 79.7049 34.3816C79.719 34.4183 79.7253 34.4567 79.7241 34.4957C79.7224 34.5352 79.7134 34.573 79.6976 34.6086C79.6812 34.6442 79.6586 34.6764 79.6298 34.7029C79.6016 34.7295 79.5677 34.7504 79.5316 34.7645C79.4948 34.778 79.4559 34.7843 79.4169 34.7831C79.3779 34.782 79.3395 34.773 79.304 34.7566L78.7991 34.529C78.5822 34.4273 78.3958 34.2698 78.2592 34.0727C78.1225 33.8761 78.04 33.6468 78.0203 33.408C78.0005 33.1691 78.044 32.929 78.1462 32.7127C78.2484 32.4959 78.406 32.3101 78.6031 32.1734C78.7872 32.0514 78.9979 31.9757 79.217 31.9526C79.4367 31.9294 79.6586 31.9599 79.8636 32.0418L87.5527 35.148C87.625 35.1779 87.6826 35.2355 87.7137 35.3078C87.7442 35.3801 87.7453 35.4614 87.7165 35.5343C87.6939 35.5913 87.6544 35.6399 87.603 35.6732C87.5516 35.7065 87.4912 35.7234 87.4296 35.7206Z" fill="white"/>
<path d="M85.8311 31.8512C85.7526 31.8512 85.6775 31.8195 85.6221 31.7642C85.5668 31.7088 85.5352 31.6337 85.5352 31.5552C85.5352 31.4767 85.5668 31.4016 85.6221 31.3463C85.6775 31.2909 85.7526 31.2599 85.8311 31.2599C86.3975 31.2729 86.9623 31.1978 87.5056 31.0368C87.5801 31.0119 87.662 31.017 87.7332 31.0509C87.8043 31.0848 87.8597 31.1447 87.8874 31.2187C87.9003 31.2554 87.906 31.2943 87.9037 31.3333C87.902 31.3723 87.8919 31.4101 87.8749 31.4451C87.858 31.4801 87.8343 31.5117 87.8055 31.5377C87.7761 31.5637 87.7422 31.5835 87.7055 31.5965C87.0978 31.7783 86.4653 31.8647 85.8311 31.8512Z" fill="black"/>
<path d="M90.2842 31.8507C90.2051 31.8495 90.13 31.8173 90.0747 31.7614C90.0193 31.7055 89.9883 31.6298 89.9883 31.5508C89.9883 31.4723 90.0193 31.3972 90.0747 31.3418C90.1306 31.2865 90.2057 31.2554 90.2842 31.2554C90.6073 31.2627 90.928 31.1955 91.2211 31.0594C91.2545 31.0391 91.2917 31.0261 91.3301 31.0199C91.3691 31.0142 91.4081 31.0165 91.4459 31.0261C91.4837 31.0357 91.5193 31.0532 91.5504 31.0769C91.5809 31.1007 91.6069 31.13 91.6261 31.1645C91.6458 31.1978 91.6588 31.2345 91.6645 31.2729C91.6696 31.3113 91.6673 31.3508 91.6577 31.3881C91.6481 31.426 91.6312 31.461 91.6074 31.492C91.5843 31.5231 91.5549 31.5491 91.5216 31.5688C91.1392 31.7642 90.7134 31.8614 90.2842 31.8507Z" fill="black"/>
<path d="M77.4414 27.8126C88.0514 27.694 91.628 26.4894 94.676 25.3932C97.7245 24.297 97.406 23.4465 95.0854 23.5148C92.7654 23.5832 84.8352 26.6481 77.4414 27.8126Z" fill="#FFE75C"/>
<path d="M74.828 46.7583L74.7777 49.6872L76.2201 49.1139C76.2201 49.1139 83.9775 45.8807 85.8339 45.4301C87.2717 45.0799 89.4054 45.8485 92.0671 46.8583C94.7287 47.8681 94.0098 48.7909 93.1864 49.6917C92.363 50.5919 92.3901 50.4964 88.0133 50.4964C79.6826 56.5178 77.0938 60.0464 73.7131 60.0464C71.6569 60.0464 69.896 59.1372 68.5903 55.0896C67.3845 51.3334 69.7051 49.232 74.828 46.7583Z" fill="#29CC7A"/>
<path d="M103.911 50.1102L99.4389 44.7393L91.8633 52.3155L97.2324 56.7816C97.1782 56.9787 97.172 57.1859 97.2138 57.3859C97.2555 57.5858 97.3448 57.7733 97.4735 57.932C98.2879 58.7413 100.658 57.7044 102.738 55.6126C104.817 53.5207 105.867 51.1696 105.053 50.3553C104.896 50.2282 104.71 50.1401 104.512 50.0972C104.313 50.0548 104.108 50.0593 103.911 50.1102Z" fill="#FFE591"/>
<path d="M96.6559 49.5292C98.7489 47.4373 99.9947 45.2907 99.439 44.7344C98.8827 44.1787 96.7349 45.424 94.642 47.5164C92.549 49.6082 91.3031 51.7548 91.8589 52.3106C92.4151 52.8668 94.5629 51.6216 96.6559 49.5292Z" fill="#FFE591"/>
<path d="M96.1553 49.023C98.0495 47.1294 99.3258 45.3358 99.0062 45.0161C98.686 44.6965 96.8912 45.9717 94.9976 47.8653C93.1034 49.7583 91.8271 51.552 92.1467 51.8722C92.4669 52.1919 94.2617 50.9161 96.1553 49.023Z" fill="black"/>
<path d="M103.502 47.8269C104.79 48.0133 105.281 49.1913 104.771 50.715C104.716 50.8805 104.619 51.0285 104.489 51.1454C104.359 51.2617 104.202 51.3431 104.031 51.3809C103.861 51.4182 103.683 51.4108 103.517 51.3594C103.349 51.308 103.199 51.2149 103.079 51.0878C102.787 50.7732 102.61 50.37 102.576 49.9425C102.542 49.515 102.654 49.0886 102.893 48.7322L103.502 47.8269Z" fill="#29CC7A"/>
<path d="M101.274 46.9405C101.13 47.9938 100.722 48.9934 100.087 49.8467C99.9503 50.0455 99.8882 50.2855 99.9108 50.5255C99.9328 50.7661 100.039 50.9903 100.21 51.1609L100.433 51.3789C100.511 51.4574 100.604 51.5195 100.706 51.5619C100.808 51.6042 100.918 51.6263 101.028 51.6263C101.139 51.6263 101.249 51.6042 101.351 51.5619C101.454 51.5195 101.546 51.4574 101.625 51.3789C102.534 50.5662 103.169 49.4926 103.444 48.305C103.818 46.6994 102.639 45.5761 100.614 46.1312L101.274 46.9405Z" fill="#29CC7A"/>
<path d="M77.4394 27.8172L81.0515 27.5213L89.7736 25.8028L87.6032 23.6606H77.2344L77.4394 27.8172Z" fill="#FFE75C"/>
<path d="M94.9884 38.791C94.4107 38.7407 93.6827 38.6955 92.9141 38.6543C93.1552 39.9001 93.751 40.5643 94.2791 40.3508C94.8066 40.1368 94.9568 39.0502 94.9884 38.791Z" fill="white"/>
<path d="M88.5898 38.5042C88.8536 39.946 89.4133 40.6965 89.8956 40.4373C90.3779 40.1781 90.5326 39.0226 90.6049 38.5544C89.7544 38.5273 89.0445 38.5087 88.5898 38.5042Z" fill="white"/>
<path d="M175.491 67.3868H38.543C38.228 67.3868 37.926 67.262 37.7033 67.0395C37.4806 66.817 37.3555 66.5149 37.3555 66.2003C37.3555 65.8852 37.4806 65.5836 37.7033 65.3605C37.926 65.138 38.228 65.0132 38.543 65.0132H175.491C175.806 65.0132 176.108 65.138 176.331 65.3605C176.554 65.5836 176.678 65.8852 176.678 66.2003C176.678 66.5149 176.554 66.817 176.331 67.0395C176.108 67.262 175.806 67.3868 175.491 67.3868Z" fill="#2835BD"/>
<path d="M92.0358 51.7108C92.0527 51.7712 92.0878 51.8249 92.1358 51.8656C92.5317 52.079 94.2739 50.8287 96.1122 48.9915L96.1534 48.9458L94.9838 47.8044L94.074 46.8585L92.8321 46.8946L90.3974 45.9854L90.293 46.1988C91.3169 46.54 91.5354 50.2831 92.0358 51.7108Z" fill="#EB459F"/>
<path d="M92.4102 46.7174C92.9218 47.7306 93.377 48.7703 93.7752 49.8326C93.7944 49.8817 93.8271 49.9235 93.87 49.9534C93.913 49.9834 93.9638 50.0003 94.0163 50.0009C94.0462 50.0077 94.0773 50.0077 94.1072 50.0009C94.1394 49.9901 94.1694 49.9721 94.1948 49.9495C94.2202 49.9263 94.2405 49.8987 94.2552 49.8676C94.2693 49.8371 94.2778 49.8032 94.2789 49.7693C94.28 49.7349 94.2744 49.701 94.262 49.6688C94.2304 49.5875 93.5933 47.8729 93.002 46.7129L92.4102 46.7174Z" fill="#D11583"/>
<path d="M92.7595 59.1375H92.7092L90.4344 59.8151C90.3858 59.8247 90.3418 59.8485 90.3068 59.8829C90.2712 59.9174 90.2469 59.9614 90.2362 60.01C90.226 60.058 90.2294 60.1083 90.2469 60.1546C90.2644 60.2003 90.2943 60.2404 90.3344 60.2698L92.3455 62.0431C92.3941 62.0832 92.4551 62.1058 92.5183 62.1069C92.555 62.1064 92.5912 62.0985 92.6245 62.0832C92.6584 62.0685 92.6883 62.047 92.7137 62.0205C92.7578 61.968 92.7804 61.9002 92.7758 61.8319C92.7719 61.7636 92.7414 61.6992 92.6911 61.6523L91.0302 60.1924L92.8092 59.6604L92.7595 59.1375Z" fill="#D11583"/>
<path d="M70.5002 51.8836C70.4341 51.8814 70.3709 51.8571 70.32 51.8153C70.2692 51.7735 70.2336 51.7159 70.219 51.6521C70.2037 51.5877 70.2105 51.5205 70.237 51.4606C70.2641 51.4008 70.3104 51.3511 70.368 51.32C70.368 51.32 71.9245 50.5469 74.5721 49.314C74.6076 49.2976 74.6455 49.2886 74.6845 49.2869C74.7234 49.2852 74.7624 49.2909 74.7985 49.3044C74.8352 49.3174 74.8686 49.3383 74.8974 49.3643C74.9262 49.3908 74.9493 49.4225 74.9657 49.4575C74.9821 49.4925 74.9917 49.5309 74.9934 49.5699C74.9951 49.6083 74.9889 49.6472 74.9759 49.6839C74.9623 49.7201 74.942 49.754 74.9154 49.7828C74.8895 49.811 74.8578 49.8342 74.8223 49.8511C72.1837 51.0834 70.6459 51.843 70.6323 51.852C70.5906 51.8712 70.5459 51.8825 70.5002 51.8836Z" fill="black"/>
<path d="M77.0849 27.6534C77.0143 27.6534 76.9454 27.628 76.8912 27.5822C76.8375 27.5365 76.8014 27.4732 76.7895 27.4032C76.7827 27.3648 76.7839 27.3253 76.7929 27.2874C76.8019 27.249 76.8183 27.2134 76.8409 27.1812C76.8641 27.1496 76.8929 27.1231 76.9262 27.1022C76.9595 27.0818 76.9962 27.0683 77.0352 27.0621C81.7119 26.316 86.348 25.3339 90.9253 24.1197C91.0021 24.1005 91.0834 24.1118 91.1512 24.1519C91.2195 24.192 91.2692 24.2575 91.2896 24.3338C91.3076 24.4106 91.2946 24.4919 91.254 24.5597C91.2133 24.6274 91.1478 24.6771 91.071 24.6974C85.8933 26.0026 83.3367 26.5939 77.1351 27.6353L77.0849 27.6534Z" fill="#FFC619"/>
<path d="M94.699 52.852L97.9204 55.8034C98.0158 55.8926 98.1389 55.9468 98.2694 55.9576C98.3998 55.9683 98.5303 55.935 98.6393 55.8627C98.7122 55.8147 98.7737 55.7503 98.8189 55.6752C98.8641 55.6001 98.8917 55.5159 98.9002 55.4284C98.9081 55.3414 98.8968 55.2533 98.8669 55.1708C98.8364 55.089 98.7884 55.0144 98.7257 54.9534L95.5862 51.9472C95.4931 51.8563 95.3722 51.7993 95.2423 51.7852C95.113 51.771 94.9825 51.801 94.8718 51.8699L94.7854 51.9201C94.7086 51.9676 94.6431 52.0325 94.5957 52.1099C94.5477 52.1867 94.5183 52.2742 94.5104 52.3646C94.5019 52.455 94.5143 52.5459 94.5471 52.6306C94.5799 52.7153 94.6318 52.791 94.699 52.852Z" fill="#FFB119"/>
<path d="M102.762 50.7467C102.702 50.7484 102.643 50.7309 102.593 50.6965C102.529 50.6519 102.484 50.583 102.47 50.5056C102.456 50.4282 102.472 50.348 102.516 50.2831C103.033 49.6009 103.356 48.7916 103.448 47.9405C103.453 47.9021 103.465 47.8642 103.484 47.8298C103.503 47.7959 103.529 47.7654 103.559 47.7411C103.59 47.7168 103.625 47.6993 103.663 47.6886C103.701 47.6779 103.74 47.675 103.779 47.6796C103.818 47.6846 103.856 47.6971 103.89 47.7168C103.923 47.736 103.953 47.762 103.977 47.7931C104.001 47.8241 104.018 47.8597 104.028 47.8976C104.039 47.9354 104.041 47.9749 104.036 48.0133C103.932 48.9587 103.578 49.8584 103.007 50.6191C102.98 50.6592 102.944 50.692 102.901 50.714C102.858 50.736 102.81 50.7473 102.762 50.7467Z" fill="black"/>
<path d="M128.639 9.22599C128.91 7.93553 128.055 6.66371 126.73 6.38585C125.404 6.10799 124.11 6.92858 123.839 8.21904C123.568 9.5095 124.423 10.7813 125.749 11.0592C127.074 11.337 128.369 10.5164 128.639 9.22599Z" fill="#2A39D4"/>
<path d="M145.004 31.46C147.17 31.5599 149.768 32.4743 153.044 36.0802C154.863 34.2611 155.773 34.7163 158.239 36.8488C160.705 38.9819 165.974 42.9566 167.285 44.307C168.595 45.6578 169.596 48.5364 166.033 50.7011C162.471 52.8658 156.124 48.882 152.803 46.5677C149.481 44.2527 145.004 41.5651 145.004 41.5651V31.46Z" fill="#2331B5"/>
<path d="M157.261 36.0303C158.128 37.4427 158.853 38.9371 159.427 40.4913C160.128 42.6288 159.254 43.8843 157.516 45.3346C155.928 46.6538 155.041 46.4669 154.117 45.7305C154.064 45.6876 153.995 45.6678 153.927 45.6757C153.859 45.6836 153.796 45.718 153.754 45.7711C153.731 45.7977 153.716 45.8282 153.706 45.8609C153.696 45.8937 153.693 45.9281 153.697 45.962C153.7 45.9959 153.711 46.0287 153.728 46.0586C153.745 46.0885 153.768 46.1145 153.794 46.1354C154.266 46.5494 154.865 46.7883 155.491 46.8125C156.215 46.8125 156.979 46.4579 157.849 45.735C159.372 44.4615 160.792 43.0061 159.918 40.3326C159.584 39.3646 159.173 38.4248 158.69 37.5218C158.503 37.1615 158.246 36.8418 157.935 36.5803L157.261 36.0303Z" fill="#3442D9"/>
<path d="M158.199 49.4599C158.137 49.4594 158.077 49.4402 158.026 49.4052C157.871 49.2962 154.181 46.6768 152.566 45.126C152.506 45.0718 152.469 44.9956 152.465 44.9148C152.461 44.8335 152.489 44.7544 152.543 44.694C152.597 44.6335 152.674 44.5974 152.754 44.5929C152.836 44.5889 152.915 44.6172 152.975 44.6714C154.568 46.1765 158.344 48.8732 158.381 48.9008C158.413 48.9234 158.439 48.9516 158.46 48.985C158.481 49.0183 158.495 49.055 158.501 49.0934C158.507 49.1318 158.506 49.1713 158.497 49.2092C158.488 49.247 158.472 49.2826 158.449 49.3142C158.423 49.3583 158.387 49.395 158.343 49.4204C158.299 49.4458 158.25 49.4594 158.199 49.4599Z" fill="black"/>
<path d="M137 30.6157C144.686 28.4216 149.315 21.038 147.339 14.1232C145.364 7.2089 137.531 3.3827 129.846 5.57676C122.16 7.77083 117.531 15.155 119.507 22.0692C121.482 28.9835 129.315 32.8097 137 30.6157Z" fill="#FF78B9"/>
<path d="M123.34 17.1073C123.34 19.9633 124.705 22.4962 126.402 22.7645C127.894 23.0011 128.518 21.5231 128.568 18.7671C128.568 18.0488 128.617 17.3304 128.663 16.616C128.832 14.0424 127.913 12.6644 126.388 12.4233C124.709 12.155 123.34 14.2514 123.34 17.1073Z" fill="white"/>
<path d="M135.939 17.2981C135.644 16.9118 135.469 16.4459 135.439 15.9602C135.408 15.4745 135.522 14.9906 135.766 14.5698C138.123 10.5403 140.289 10.3997 141.858 10.4765C143.587 10.568 144.588 12.0228 143.314 15.7022C145.134 17.6669 144.365 19.4628 141.776 19.7175C139.547 19.9451 137.809 19.7678 135.939 17.2981Z" fill="#D11583"/>
<path d="M152.915 56.8636C153.288 47.1041 150.185 45.8577 149.875 42.9656C149.566 40.0735 149.279 36.144 146.081 31.9145C146.081 31.9145 146.44 27.972 146.654 25.3114C146.664 25.2075 146.648 25.1036 146.611 25.0065C146.574 24.9093 146.514 24.8223 146.438 24.7512C146.361 24.6806 146.27 24.6286 146.17 24.5987C146.071 24.5688 145.965 24.562 145.863 24.5789C143.78 24.9014 141.672 25.0262 139.566 24.9522C135.926 24.8478 131.035 24.497 125.798 29.577L127.504 31.9512L127.391 32.1557C127.307 32.2985 127.256 32.4578 127.242 32.6221C127.227 32.7871 127.248 32.9525 127.305 33.1078C127.361 33.2631 127.451 33.4043 127.568 33.5212C127.685 33.6381 127.827 33.7274 127.982 33.7838L128.296 33.9019C128.296 33.9019 123.532 36.7714 124.952 43.27C126.371 49.7692 124.87 56.0628 127.268 58.0005C127.755 58.3879 128.333 58.6454 128.948 58.7476C129.562 58.8504 130.193 58.7951 130.78 58.5872L141.795 64.4443C145.812 68.8737 151.49 73.8311 151.49 73.8311L147.105 84.3225L151.736 95.992C155.69 86.3008 160.877 76.7915 161.805 72.4073C162.733 68.0237 159.767 65.4496 152.915 56.8636Z" fill="#2331B5"/>
<path d="M148.857 90.1435L148.293 89.9572C150.505 83.1355 153.002 76.9328 153.716 75.1906C153.758 75.0917 153.767 74.9822 153.745 74.8777C153.721 74.7727 153.667 74.6772 153.589 74.6044C147.219 68.5101 145.677 66.4182 145.613 66.3093L146.096 65.9636C146.096 65.9862 147.684 68.1374 154.003 74.1768C154.168 74.3316 154.281 74.5332 154.328 74.754C154.375 74.9748 154.353 75.2052 154.267 75.4136C153.557 77.1508 151.064 83.345 148.857 90.1435Z" fill="#3442D9"/>
<path d="M131.615 52.693L127.656 49.9647C127.656 49.9647 130.068 46.6812 131.378 44.7074C131.492 44.5391 131.601 44.3663 131.701 44.1935C131.733 44.1348 131.786 44.0902 131.849 44.0687C131.912 44.0467 131.981 44.0489 132.042 44.0755C132.099 44.0992 132.146 44.141 132.175 44.1946C132.205 44.2483 132.216 44.3104 132.206 44.3708C131.319 49.6372 131.615 52.693 131.615 52.693Z" fill="black"/>
<path d="M146.613 25.8389C144.497 26.5392 141.699 26.5301 138.373 26.4347C134.806 26.3302 131.698 26.2438 126.18 30.1276L127.09 31.387C132.172 27.8081 134.915 27.8855 138.337 27.9855C141.522 28.0764 144.252 28.09 146.476 27.4987C146.522 26.9351 146.572 26.3935 146.613 25.8389Z" fill="#3442D9"/>
<path d="M145.007 56.4086C145.075 56.4086 145.14 56.382 145.189 56.3346C145.237 56.2866 145.265 56.2222 145.266 56.1539C145.334 51.3879 143.51 46.5175 142.722 44.6482C141.922 42.7206 141.433 40.6774 141.275 38.5957C141.161 36.6693 140.776 34.7695 140.129 32.9515L141.126 24.9885H140.602L139.602 33.0289L139.629 33.0927C140.269 34.8757 140.65 36.741 140.762 38.6318C140.924 40.7683 141.424 42.8647 142.245 44.8441C143.018 46.6858 144.815 51.4743 144.747 56.1403C144.746 56.1753 144.753 56.2098 144.766 56.242C144.778 56.2742 144.797 56.3035 144.822 56.3284C144.845 56.3532 144.874 56.373 144.906 56.3871C144.938 56.4007 144.972 56.408 145.007 56.4086Z" fill="black"/>
<path d="M162.182 102.727C162.077 102.567 161.935 102.434 161.769 102.339C161.603 102.244 161.418 102.19 161.226 102.182C161.381 101.099 161.226 100.221 159.784 99.8847C158.172 99.5442 156.503 99.5973 154.916 100.039C152.186 93.036 146.776 74.5719 142.995 61.102L130.779 58.6052C130.647 61.9565 132.85 69.3288 134.455 75.6862C136.061 82.0442 139.597 95.3599 140.579 100.171C141.166 103.064 142.022 106.538 142.022 106.538H153.396C156.722 106.538 161.003 105.215 161.813 104.578C162.101 104.376 162.301 104.071 162.369 103.726C162.438 103.382 162.371 103.024 162.182 102.727Z" fill="#2331B5"/>
<path d="M143.686 99.7896C143.172 98.1705 142.622 96.47 142.048 94.7052C138.727 84.4363 134.591 71.6621 131.93 58.7784L132.512 58.6553C135.165 71.5074 139.296 84.2634 142.613 94.5143C143.186 96.2831 143.736 97.9841 144.255 99.6033L143.686 99.7896Z" fill="#3442D9"/>
<path d="M138.137 56.8636C138.178 55.9764 137.004 52.7386 135.585 50.3921C134.165 48.0455 133.442 46.3903 132.109 47.1583C130.776 47.9269 127.655 49.951 127.655 49.951C127.655 49.951 130.061 46.663 131.376 44.6892C134.27 40.3553 133.273 34.3796 128.291 33.9019C124.228 36.1439 123.596 38.0951 119.747 44.8711C115.898 51.647 113.605 58.9328 117.74 61.9204C121.876 64.9085 125.93 62.8302 133.419 59.5648C136.641 58.1597 138.096 57.7457 138.137 56.8636Z" fill="#2331B5"/>
<path d="M133.458 59.1372C132.634 58.7645 131.906 57.5136 131.023 54.9626C129.535 50.6648 129.126 49.3461 130.054 48.4543L129.504 48.8045C129.371 48.8881 129.26 49.0022 129.181 49.1377C129.102 49.2732 129.056 49.4257 129.048 49.5822C129.012 50.7241 129.59 52.3884 130.537 55.1309C131.137 56.859 131.669 58.0094 132.229 58.7368C132.45 59.031 132.763 59.2434 133.118 59.3405C133.473 59.4377 133.85 59.414 134.19 59.2733C133.938 59.2869 133.687 59.24 133.458 59.1372Z" fill="#3442D9"/>
<path d="M123.936 52.557C123.886 52.5564 123.836 52.5434 123.792 52.5186C123.749 52.4943 123.712 52.4587 123.686 52.4158C123.644 52.3491 123.631 52.269 123.648 52.1927C123.665 52.1165 123.711 52.0493 123.777 52.0063C124.059 51.829 130.642 47.6814 131.966 46.9179C133.395 46.099 134.218 47.4996 135.36 49.4373L135.847 50.2601C135.871 50.2934 135.887 50.3313 135.896 50.3708C135.903 50.4109 135.903 50.4516 135.895 50.4917C135.887 50.5312 135.871 50.569 135.847 50.6018C135.823 50.6351 135.793 50.6633 135.758 50.6842C135.724 50.7051 135.685 50.7187 135.645 50.7243C135.604 50.7294 135.563 50.7266 135.525 50.7153C135.486 50.704 135.449 50.6848 135.418 50.6588C135.386 50.6334 135.361 50.6012 135.342 50.5651C135.165 50.2782 135.005 50.0009 134.851 49.7372C133.613 47.6408 133.103 46.9495 132.262 47.4318C130.947 48.1909 124.163 52.4661 124.072 52.5067C124.032 52.5344 123.985 52.5519 123.936 52.557Z" fill="black"/>
<path d="M150.921 33.9431C150.779 33.9415 150.642 33.8895 150.534 33.7958C150.427 33.7026 150.356 33.5744 150.334 33.4338C149.414 27.2237 149.06 20.9437 149.279 14.6698C149.282 14.5659 149.262 14.4626 149.218 14.3682C149.175 14.2745 149.109 14.1915 149.028 14.1271C148.946 14.0633 148.85 14.0192 148.749 13.9989C148.647 13.9786 148.542 13.9825 148.442 14.0102L141.053 16.084C140.978 16.1049 140.899 16.1111 140.822 16.1015C140.745 16.0924 140.67 16.0676 140.602 16.0292C140.534 15.9913 140.475 15.9399 140.427 15.879C140.379 15.8174 140.344 15.7474 140.323 15.6723C140.302 15.5977 140.296 15.5192 140.305 15.4418C140.314 15.3645 140.339 15.2899 140.377 15.2222C140.415 15.1544 140.467 15.0951 140.528 15.0471C140.589 14.9991 140.659 14.9635 140.734 14.9426L148.123 12.8643C148.404 12.7869 148.699 12.7768 148.984 12.8344C149.27 12.8925 149.537 13.0168 149.766 13.1975C149.994 13.3782 150.177 13.6103 150.298 13.8752C150.42 14.1395 150.478 14.4287 150.466 14.7195C150.25 20.9205 150.601 27.1283 151.513 33.2655C151.535 33.4213 151.494 33.58 151.399 33.706C151.305 33.8325 151.164 33.916 151.008 33.9386L150.921 33.9431Z" fill="#66BCFF"/>
<path d="M146.17 33.8611C146.898 35.2256 148.186 37.6585 148.445 38.4498C148.527 39.6956 148.473 41.8377 148.445 42.5109C148.444 42.5691 148.465 42.625 148.502 42.6696C148.54 42.7136 148.592 42.743 148.65 42.752C150.67 43.0655 151.557 43.1067 152.367 42.9881C153.31 42.8068 154.24 42.5713 155.156 42.2833C155.202 42.2709 155.246 42.2483 155.283 42.2184C155.32 42.1879 155.35 42.15 155.372 42.1071C155.393 42.0642 155.405 42.0167 155.407 41.9687C155.409 41.9213 155.401 41.8733 155.383 41.8287C154.624 39.3957 154.132 37.6218 154.132 37.6218C153.969 34.6066 153.955 32.2149 153.955 31.405C153.955 31.3265 153.925 31.2503 153.871 31.1927C153.817 31.1351 153.743 31.1006 153.664 31.0961C152.089 30.956 150.507 30.9193 148.927 30.9871C147.931 31.0594 147.594 31.6462 146.198 33.3015C146.135 33.3805 146.099 33.4765 146.094 33.5771C146.089 33.677 146.116 33.7764 146.17 33.8611Z" fill="white"/>
<path d="M155.094 42.0467C155.094 42.0467 155.417 42.1698 155.176 42.2833C155.222 42.2709 155.265 42.2483 155.302 42.2184C155.34 42.1879 155.369 42.15 155.391 42.1071C155.412 42.0642 155.425 42.0167 155.427 41.9687C155.429 41.9213 155.421 41.8733 155.403 41.8287C154.643 39.3957 154.152 37.6218 154.152 37.6218C153.988 34.6066 153.975 32.2149 153.975 31.405C153.975 31.3265 153.945 31.2503 153.89 31.1927C153.836 31.1351 153.762 31.1006 153.683 31.0961C152.109 30.956 150.526 30.9193 148.947 30.9871C148.734 30.999 148.524 31.0487 148.328 31.1322L150.921 36.6714L150.749 41.7694L155.094 42.0467Z" fill="#FFE75C"/>
<path d="M151.098 41.915C151.607 43.7341 152.045 44.9985 153.164 45.2346C154.283 45.4712 155.639 44.3254 157.368 42.5927C159.097 40.86 158.487 39.4092 157.741 38.0447C156.995 36.6803 156.895 34.9617 155.98 34.2473C154.83 33.4211 153.604 32.7072 152.317 32.1148C151.266 31.6596 150.652 31.6596 149.06 33.438C147.467 35.2159 146.584 36.2483 146.858 36.9627C147.059 37.4704 147.292 37.9657 147.554 38.4451C147.258 38.6886 147.057 39.0268 146.983 39.403C146.909 39.7785 146.967 40.1676 147.149 40.5054C147.463 41.2508 147.558 41.9331 149.069 41.9331C150.58 41.9331 151.098 41.915 151.098 41.915Z" fill="#FF78B9"/>
<path d="M147.61 38.4131C147.528 38.4125 147.45 38.3798 147.392 38.3222C147.336 38.2663 147.305 38.19 147.305 38.111C147.305 38.0319 147.336 37.9557 147.392 37.8992C149.598 35.844 151.523 34.0063 151.541 33.9883C151.569 33.9617 151.602 33.9403 151.639 33.9261C151.675 33.912 151.713 33.9052 151.752 33.9064C151.791 33.9069 151.829 33.9154 151.865 33.9312C151.901 33.947 151.933 33.9696 151.959 33.9973C151.986 34.0255 152.007 34.0589 152.022 34.095C152.036 34.1312 152.042 34.1695 152.042 34.2085C152.041 34.2475 152.032 34.2859 152.017 34.3215C152.001 34.3571 151.979 34.3892 151.95 34.4158C151.95 34.4158 150.003 36.2761 147.797 38.3357C147.745 38.3826 147.679 38.4103 147.61 38.4131Z" fill="black"/>
<path d="M151.423 39.6909C150.482 40.2811 149.502 40.8057 148.489 41.2598C148.489 41.8014 148.489 42.2606 148.461 42.5107C148.46 42.5689 148.481 42.6248 148.519 42.6694C148.556 42.7135 148.608 42.7429 148.666 42.7519C150.686 43.0653 151.573 43.1066 152.383 42.988C153.325 42.8067 154.256 42.5712 155.172 42.2831C155.218 42.2707 155.262 42.2481 155.298 42.2182C155.336 42.1877 155.366 42.1499 155.388 42.1069C155.409 42.064 155.421 42.0166 155.423 41.9686C155.425 41.9211 155.417 41.8731 155.4 41.8285C155.34 41.6241 155.276 41.4281 155.218 41.2372C153.896 40.8746 152.621 40.3556 151.423 39.6909Z" fill="white"/>
<path d="M133.145 47.9315C134.084 46.8488 134.772 45.5725 135.16 44.1934C135.452 43.2841 135.797 42.0196 135.911 41.5469C136.093 40.7828 136.584 40.7919 137.276 40.9556C137.968 41.1194 138.24 41.2239 138.131 42.4426C138.022 43.6614 137.731 46.5354 137.731 46.5354L133.145 47.9315Z" fill="#FF78B9"/>
<path d="M146.828 48.6504C146.373 47.4271 146.177 46.7946 145.786 46.3039C145.395 45.8125 145.049 45.7126 143.316 45.6216C142.643 45.5849 141.327 45.6216 140.468 45.6216C142.183 45.1664 143.971 44.8027 144.371 44.7118C144.954 44.5435 145.536 44.4616 145.281 43.7162C145.026 42.9701 144.781 42.8063 144.371 42.8063C143.304 42.7939 142.237 42.8826 141.187 43.0701C139.658 43.3875 138.156 43.8178 136.691 44.3571C135.822 44.7299 134.735 46.3129 133.184 47.9546C133.866 50.3695 135.513 54.0302 137.155 55.7945C139.376 54.935 140.654 53.0385 141.2 52.3247C143.962 51.87 144.931 52.1519 146.455 52.3473C147.415 52.4704 147.488 51.7791 147.565 51.438C147.642 51.0969 147.201 49.7601 146.828 48.6504Z" fill="#FF78B9"/>
<path d="M124.24 17.1532C124.145 18.39 124.554 19.4269 125.15 19.4816C125.651 19.5178 126.06 19.0541 126.06 17.8986C126.076 17.409 126.137 16.9222 126.242 16.4433C126.46 15.425 125.987 15.0336 125.487 14.993C124.9 14.9472 124.336 15.9344 124.24 17.1532Z" fill="black"/>
<path d="M134.424 2.46375C135.04 2.34233 135.678 2.44568 136.225 2.75404C136.772 3.06239 137.19 3.55655 137.404 4.14615C137.859 5.54674 138.237 7.66626 135.839 8.04351C134.828 8.20277 133.786 7.75718 132.199 6.50174C131.048 5.59249 129.801 5.27397 127.094 6.64293C125.638 5.65178 126.375 3.07764 130.311 4.36923C128.582 2.1633 129.105 0.603454 130.338 0.175936C131.571 -0.251583 133.427 -0.0465803 134.424 2.46375Z" fill="#2A39D4"/>
<path d="M134.419 6.74298C133.566 5.58467 132.844 4.33601 132.266 3.01844C131.607 1.654 131.065 0.553857 130.419 0.139893L130.333 0.166994C130.106 0.24493 129.897 0.366918 129.719 0.526178C129.779 0.500765 129.844 0.488343 129.91 0.490037C130.478 0.535782 131.12 1.85448 131.803 3.24604C132.401 4.59805 133.149 5.87948 134.032 7.06602C134.319 7.42125 134.642 7.74598 134.996 8.03457C135.272 8.08032 135.553 8.08032 135.829 8.03457H135.879C135.331 7.67878 134.839 7.24335 134.419 6.74298Z" fill="black"/>
<path d="M137.41 7.17042C137.289 7.35002 137.135 7.50476 136.955 7.62506C136.808 5.64842 135.927 3.79715 134.484 2.43666C134.716 2.40165 134.953 2.40165 135.185 2.43666C136.412 3.73672 137.192 5.39597 137.41 7.17042Z" fill="black"/>
<path d="M140.453 99.5211C140.503 99.7481 140.554 99.9757 140.594 100.171C141.181 103.064 142.037 106.538 142.037 106.538H153.411C156.737 106.538 161.019 105.215 161.828 104.578C162.124 104.378 162.329 104.071 162.401 103.721C162.472 103.372 162.404 103.008 162.21 102.709C162.106 102.549 161.965 102.416 161.799 102.321C161.632 102.226 161.446 102.172 161.255 102.163C161.409 101.081 161.255 100.203 159.813 99.8667C158.201 99.5262 156.531 99.5793 154.945 100.021C154.521 98.9343 154.034 97.5654 153.493 95.9829C148.465 95.9191 143.379 95.5193 140.453 99.5211Z" fill="#45AAF7"/>
<path d="M140.453 99.5211C140.503 99.7481 140.554 99.9757 140.594 100.171C141.181 103.064 142.037 106.538 142.037 106.538H153.411C156.737 106.538 161.019 105.215 161.828 104.578C162.124 104.378 162.329 104.071 162.401 103.721C162.472 103.372 162.404 103.008 162.21 102.709C162.106 102.549 161.965 102.416 161.799 102.321C161.632 102.226 161.446 102.172 161.255 102.163C161.409 101.081 161.255 100.203 159.813 99.8667C158.201 99.5262 156.531 99.5793 154.945 100.021C154.521 98.9343 154.034 97.5654 153.493 95.9829C148.465 95.9191 143.379 95.5193 140.453 99.5211Z" fill="#45AAF7"/>
<path d="M154.914 100.067L154.518 100.144H154.473L151.219 100.813C151.219 100.813 151.187 100.731 151.137 100.576C150.895 99.7287 150.771 98.8516 150.769 97.9706C150.742 96.1831 149.791 95.9832 148.148 96.0194C148.176 95.942 148.198 95.8691 148.225 95.7968C148.451 95.2253 148.844 94.7351 149.354 94.3912C149.862 94.0473 150.464 93.8648 151.078 93.8682H153.808C153.967 93.8688 154.124 93.9049 154.268 93.9738C154.41 94.0427 154.537 94.1427 154.637 94.2664C154.736 94.3901 154.807 94.5346 154.844 94.6888C154.881 94.8435 154.883 95.0045 154.85 95.1598C154.517 96.6039 154.489 98.1022 154.768 99.5575C154.806 99.7304 154.855 99.9003 154.914 100.067Z" fill="#8CD9FF"/>
<path d="M143.456 101.85C143.05 101.714 142.622 101.663 142.196 101.7C141.77 101.737 141.357 101.86 140.98 102.063C141.022 102.236 141.058 102.409 141.099 102.582C141.426 102.39 141.79 102.269 142.167 102.227C142.544 102.185 142.926 102.224 143.287 102.34C144.943 102.9 146.145 105.069 146.791 106.556H147.359C146.704 104.997 145.389 102.509 143.456 101.85Z" fill="#5865F2"/>
<path d="M162.074 104.332C161.99 104.429 161.898 104.518 161.796 104.596C160.987 105.238 156.705 106.556 153.379 106.556H146.582V106.434C154.367 106.311 159.672 103.077 161.473 103.077C161.611 103.095 161.742 103.146 161.854 103.228C161.966 103.308 162.056 103.416 162.116 103.541C162.176 103.666 162.203 103.804 162.196 103.942C162.188 104.08 162.147 104.215 162.074 104.332Z" fill="black"/>
<path d="M156.339 42.2518H156.294C155.534 42.0829 154.862 41.6452 154.401 41.0195C154.369 40.9907 154.343 40.9556 154.326 40.9161C154.308 40.8766 154.3 40.8337 154.301 40.7902C154.302 40.7473 154.313 40.7049 154.332 40.6665C154.351 40.6275 154.378 40.5936 154.412 40.5665C154.445 40.54 154.485 40.5208 154.527 40.5106C154.569 40.4999 154.612 40.4993 154.654 40.5078C154.697 40.5163 154.737 40.5338 154.772 40.5592C154.806 40.5846 154.835 40.6174 154.856 40.6552C155.228 41.1578 155.764 41.5147 156.371 41.665C156.41 41.6712 156.447 41.6847 156.48 41.7051C156.514 41.7254 156.542 41.7525 156.565 41.7841C156.588 41.8158 156.605 41.8519 156.613 41.8898C156.622 41.9282 156.623 41.9677 156.617 42.0061C156.606 42.0727 156.572 42.1332 156.521 42.1778C156.471 42.2224 156.406 42.2484 156.339 42.2518Z" fill="black"/>
<path d="M141.584 38.5589C141.285 38.56 140.996 38.4482 140.775 38.246C140.554 38.0438 140.417 37.766 140.392 37.4672L140.16 34.7795H140.693L142.253 37.3718C142.325 37.4904 142.364 37.6259 142.366 37.7648C142.368 37.9032 142.333 38.0399 142.265 38.1607C142.197 38.2816 142.098 38.3815 141.979 38.4516C141.859 38.5216 141.723 38.5589 141.584 38.5589Z" fill="#FFE75C"/>
<path d="M131.207 34.2157H128.295C128.222 34.2067 128.155 34.1711 128.107 34.1164C128.058 34.0616 128.031 33.991 128.031 33.9176C128.031 33.8447 128.058 33.7741 128.107 33.7188C128.155 33.664 128.222 33.629 128.295 33.6199H131.207C131.249 33.6149 131.292 33.6182 131.332 33.6312C131.373 33.6436 131.411 33.6645 131.442 33.6928C131.475 33.721 131.5 33.7555 131.517 33.7944C131.535 33.8334 131.544 33.8752 131.544 33.9176C131.544 33.9605 131.535 34.0023 131.517 34.0412C131.5 34.0796 131.475 34.1147 131.442 34.1429C131.411 34.1706 131.373 34.192 131.332 34.2045C131.292 34.2169 131.249 34.2208 131.207 34.2157Z" fill="black"/>
<path d="M144.851 67.6457L143.969 64.5582C146.356 62.9984 148.627 61.2685 150.766 59.3828C150.766 59.3828 148.287 64.8671 147.195 69.92L144.851 67.6457Z" fill="black"/>
<path d="M151.49 74.1445C151.417 74.136 151.35 74.1004 151.302 74.0456C151.253 73.9909 151.227 73.9203 151.227 73.8469C151.227 73.7734 151.253 73.7029 151.302 73.6481C151.35 73.5933 151.417 73.5577 151.49 73.5492L154.374 73.4352C154.453 73.4318 154.529 73.4594 154.587 73.512C154.646 73.5651 154.68 73.639 154.684 73.717C154.687 73.7955 154.66 73.8723 154.607 73.9305C154.554 73.9881 154.48 74.0231 154.402 74.0264L151.517 74.1445H151.49Z" fill="black"/>
<path d="M154.92 100.067L154.524 100.144H154.479C153.185 100.433 151.915 100.819 150.68 101.299C150.647 101.306 150.612 101.306 150.58 101.299C150.519 101.299 150.46 101.278 150.414 101.24C150.368 101.201 150.336 101.148 150.325 101.088C150.314 101.029 150.323 100.968 150.352 100.915C150.381 100.862 150.428 100.821 150.484 100.799C150.484 100.799 150.739 100.699 151.144 100.553C152.331 100.127 153.547 99.786 154.784 99.5347C154.818 99.7148 154.863 99.8927 154.92 100.067Z" fill="black"/>
<path d="M146.886 48.8865L146.804 48.6504C146.768 48.547 146.731 48.4471 146.695 48.3499C144.064 48.0297 141.407 47.9732 138.764 48.1816C138.697 48.1884 138.634 48.2223 138.59 48.2748C138.547 48.3279 138.526 48.3957 138.532 48.4634C138.54 48.5312 138.574 48.5933 138.627 48.6363C138.68 48.6797 138.747 48.7006 138.815 48.6956C141.505 48.4906 144.209 48.5544 146.886 48.8865Z" fill="black"/>
<path d="M126.733 15.811L125.004 16.648L127.424 17.7255L126.733 15.811Z" fill="white"/>
<path d="M162.083 104.323C162.26 104.073 162.083 103.928 161.478 103.928C159.658 103.928 154.371 106.429 146.586 106.556H142.037C142.037 106.556 141.909 106.042 141.723 105.242C145.272 105.242 149.184 105.187 152.787 104.033C156.655 102.791 158.839 101.895 161.246 102.181C161.435 102.19 161.621 102.244 161.786 102.338C161.952 102.432 162.092 102.564 162.197 102.723C162.354 102.966 162.427 103.253 162.407 103.542C162.386 103.831 162.272 104.105 162.083 104.323Z" fill="white"/>
<path d="M152.787 94.8138H153.142C153.966 94.8138 154.548 94.8551 154.712 95.0505C154.789 95.1459 154.803 95.3323 154.748 95.6508C154.78 95.478 154.812 95.3052 154.848 95.1414C154.864 95.0521 154.861 94.9601 154.84 94.872C154.819 94.7833 154.78 94.7003 154.726 94.6269C154.672 94.554 154.604 94.4925 154.526 94.4467C154.447 94.4004 154.36 94.3705 154.27 94.3592C153.896 94.3163 153.519 94.2982 153.142 94.3044H152.791C151.426 94.3044 149.884 94.3044 149.074 96.028C149.256 96.0427 149.435 96.0732 149.611 96.119C150.294 94.7958 151.508 94.8048 152.787 94.8138Z" fill="#3442D9"/>
<path d="M141.963 17.0345C141.916 17.035 141.871 17.0243 141.83 17.004C141.789 16.9831 141.753 16.9531 141.726 16.9164C141.694 16.8752 140.898 15.8841 139.042 16.1071C138.964 16.119 138.884 16.0998 138.821 16.0529C138.757 16.0066 138.715 15.9366 138.703 15.8592C138.69 15.7813 138.71 15.7016 138.757 15.6384C138.803 15.5746 138.873 15.5322 138.951 15.5204C140.434 15.2154 141.025 14.5106 141.344 14.0012C141.364 13.9678 141.39 13.939 141.422 13.9165C141.453 13.8939 141.488 13.8775 141.526 13.8685C141.564 13.8594 141.603 13.8583 141.641 13.8645C141.679 13.8713 141.716 13.8848 141.749 13.9057C141.782 13.9261 141.812 13.9526 141.835 13.9842C141.858 14.0153 141.875 14.0514 141.885 14.0893C141.894 14.1277 141.895 14.1672 141.889 14.2056C141.883 14.2446 141.869 14.2819 141.849 14.3152C141.52 14.8449 141.061 15.282 140.516 15.5836C141.167 15.7175 141.758 16.0591 142.199 16.5572C142.247 16.6205 142.267 16.7001 142.256 16.7786C142.244 16.8566 142.203 16.9277 142.14 16.9757C142.089 17.0136 142.026 17.0345 141.963 17.0345Z" fill="black"/>
<path d="M102.879 106.556H83.1289V102.377C83.1272 101.304 83.5468 100.274 84.2979 99.5075C84.9898 98.8021 85.7132 98.1108 86.2497 97.611C86.5022 97.3727 86.7032 97.0858 86.841 96.7678C86.9788 96.4493 87.05 96.1065 87.0506 95.7597V91.0305C87.0511 90.0772 87.373 89.1527 87.9643 88.405C88.5551 87.6578 89.3807 87.1309 90.308 86.9101C93.3041 86.1358 96.4294 86.0008 99.4808 86.5142C100.442 86.7067 101.307 87.2258 101.928 87.9837C102.549 88.7416 102.888 89.6915 102.888 90.6708L102.879 106.556Z" fill="#45AAF7"/>
<path d="M88.2028 98.6022C88.2395 98.6203 88.2802 98.6299 88.3214 98.6293C88.3688 98.6304 88.4152 98.618 88.4564 98.5937C88.4971 98.57 88.5309 98.535 88.5535 98.4932C89.4312 96.7831 89.4312 94.1045 89.4312 91.2666C89.4312 88.3107 89.7135 87.3467 91.6241 86.6238C91.3513 86.6735 90.9645 86.7508 90.5962 86.8327C90.3381 86.8932 90.097 87.0095 89.8886 87.1727C89.6808 87.3359 89.5102 87.5426 89.3905 87.7787C88.9856 88.6021 88.9353 89.7068 88.9353 91.2666C88.9353 94.0407 88.9353 96.6561 88.1119 98.2566C88.0786 98.3147 88.0695 98.3836 88.0865 98.448C88.1034 98.513 88.1452 98.5683 88.2028 98.6022Z" fill="#BAE8FF"/>
<path d="M102.88 90.6708C102.881 89.6898 102.541 88.7387 101.917 87.9803C101.294 87.2224 100.427 86.7039 99.4634 86.5142C97.8725 86.2188 96.25 86.1284 94.6359 86.2459C90.8374 86.5051 91.4061 88.92 91.4061 92.4175V95.4186C91.4106 96.416 91.1469 97.3964 90.6414 98.2565C90.0817 99.198 89.918 100.303 89.918 102.513V106.556H102.88V90.6708Z" fill="#3F99F2"/>
<path d="M98.1154 101.759C97.9375 96.5969 95.5853 92.0766 93.2196 87.7698C93.1642 87.6834 93.1332 87.5835 93.1292 87.4807C93.1258 87.3779 93.1501 87.2762 93.1993 87.1859C93.2484 87.0955 93.3212 87.0204 93.4099 86.9679C93.498 86.9154 93.5991 86.8877 93.7019 86.8877H94.2887C94.414 86.8905 94.536 86.9255 94.6428 86.9905C94.7501 87.0549 94.8382 87.1464 94.8986 87.2559C97.3553 91.7175 99.9034 96.3925 100.072 101.759C100.106 102.386 100.011 103.014 99.791 103.602C99.5708 104.19 99.2314 104.727 98.7937 105.178C98.356 105.628 97.8297 105.984 97.2474 106.221C96.6657 106.458 96.0411 106.572 95.4125 106.556H93.4562C94.0848 106.572 94.7094 106.458 95.2911 106.221C95.8734 105.984 96.3997 105.628 96.8374 105.178C97.2751 104.727 97.6145 104.19 97.8342 103.602C98.0544 103.014 98.1499 102.386 98.1154 101.759Z" fill="#3543DE"/>
<path d="M103.691 101.759C103.514 96.597 101.162 92.0767 98.7959 87.7699C98.7377 87.6829 98.705 87.5824 98.6999 87.4779C98.6948 87.374 98.7185 87.2706 98.7682 87.1786C98.8179 87.0871 98.8913 87.0108 98.9817 86.9578C99.0715 86.9047 99.1737 86.8776 99.2782 86.8787H99.8605C99.9864 86.881 100.109 86.916 100.217 86.9809C100.325 87.0453 100.413 87.1373 100.475 87.2469C102.927 91.7079 105.48 96.3829 105.648 101.749C105.679 102.377 105.581 103.005 105.358 103.593C105.136 104.182 104.795 104.718 104.356 105.168C103.917 105.618 103.39 105.973 102.807 106.21C102.225 106.448 101.599 106.563 100.971 106.547H99.0145C99.6425 106.563 100.267 106.448 100.849 106.211C101.43 105.974 101.957 105.62 102.396 105.171C102.835 104.722 103.177 104.187 103.399 103.599C103.622 103.013 103.722 102.386 103.691 101.759Z" fill="#3543DE"/>
<path d="M98.8492 93.7363L104.905 94.7913C105.296 95.713 105.548 96.6877 105.652 97.6834C105.692 98.3204 104.955 98.9117 103.768 99.4025C102.919 99.7651 102.134 100.261 101.443 100.871C99.7229 102.377 98.258 103.319 95.751 103.319C95.2235 103.319 94.8683 103.319 94.5865 103C94.2719 102.641 94.0867 102.188 94.0584 101.712C94.0302 101.236 94.1618 100.765 94.4317 100.372C94.7367 99.9537 95.1162 99.5962 95.5511 99.3161C96.4474 98.7287 97.2041 97.9528 97.7694 97.0424C98.3342 96.132 98.6939 95.1092 98.8221 94.0452C98.8267 93.9408 98.8402 93.8408 98.8492 93.7363Z" fill="#DE3A93"/>
<path d="M103.766 99.407C104.258 99.2127 104.718 98.9462 105.132 98.6158C105.709 98.0973 105.459 97.5925 104.221 97.6111C102.984 97.6292 101.751 98.5977 99.1937 100.149C96.5642 101.74 92.8244 103.332 95.7131 103.332C98.2432 103.332 99.685 102.391 101.405 100.885C102.106 100.266 102.904 99.7668 103.766 99.407Z" fill="black"/>
<path d="M98.1986 91.9398C97.7756 92.0308 97.8299 92.5266 98.062 93.0315C97.5706 93.9408 97.8666 94.2909 98.7126 94.6456C100.392 95.2103 102.163 95.4481 103.931 95.3459C105.751 95.1595 105.651 94.5727 105.465 93.982C106.079 93.4545 105.992 92.831 105.355 92.5492C103.064 91.7258 100.597 91.5157 98.1986 91.9398Z" fill="#66BCFF"/>
<path d="M111.607 60.9247H103.836V65.1677H111.607V60.9247Z" fill="white"/>
<path d="M127.439 61.02V61.0697C127.587 61.674 127.596 62.3043 127.464 62.912C127.332 63.5202 127.062 64.09 126.677 64.5785C126.291 65.067 125.799 65.4613 125.239 65.7306C124.678 66.0006 124.063 66.1395 123.44 66.1361H114.978L110.997 68.3505V68.2506C109.177 68.2506 108.135 67.6457 108.959 60.9743C108.572 59.1055 106.92 51.7332 106.005 46.2534C105.164 41.2508 107.047 39.4318 112.207 36.4849C114.418 29.9405 120.128 30.3229 121.197 34.2473C122.266 38.1724 125.938 54.8077 127.439 61.02Z" fill="#66BCFF"/>
<path d="M111.478 70.4385L110.113 70.6836C110.048 70.696 109.986 70.7226 109.932 70.7615C109.878 70.8005 109.833 70.8508 109.801 70.9089C109.768 70.9671 109.749 71.0315 109.744 71.0981C109.738 71.1642 109.749 71.2308 109.772 71.293L110.068 72.048C105.942 72.2666 102.333 72.6348 100.91 73.8671C99.3216 75.2632 99.4854 77.01 98.8303 82.6897C98.1751 88.37 97.101 91.7534 98.8303 92.5085C100.58 93.2579 102.492 93.5488 104.385 93.3539C106.296 93.1675 106.456 92.1945 106.86 89.2612C107.265 86.3278 108.153 79.7795 108.153 79.7795H123.167C126.875 79.7795 129.082 77.3556 129.587 75.2863C129.946 73.7988 129.459 70.2837 128.604 66.1362H114.977L110.996 68.3506L111.301 69.6241L111.478 70.4385Z" fill="#3442D9"/>
<path d="M120.253 82.0262L120.008 81.4846C125.209 79.1426 125.322 74.327 123.707 66.2589L124.289 66.1409C125.65 72.9445 126.351 79.2748 120.253 82.0262Z" fill="#2330BF"/>
<path d="M99.753 94.9551C99.6818 94.9551 99.6135 94.9297 99.5593 94.8839C99.505 94.8382 99.4689 94.7749 99.457 94.7049C99.4717 94.047 99.54 93.3919 99.6615 92.7447C99.4344 90.1801 100.171 85.6869 100.749 82.526L100.999 81.1621C101.909 75.8913 102.041 75.7863 107.051 75.4593L108.416 75.3728C111.555 75.1678 113.129 75.0634 113.661 74.3766C114.116 73.7808 113.902 72.5169 113.511 70.5018C112.674 66.2137 112.041 62.562 112.037 62.5253C112.029 62.4869 112.03 62.4468 112.037 62.4084C112.045 62.37 112.061 62.3333 112.084 62.3011C112.106 62.2689 112.135 62.2412 112.168 62.2203C112.202 62.1994 112.239 62.1859 112.278 62.1796C112.355 62.1667 112.434 62.1847 112.499 62.2299C112.563 62.2751 112.606 62.3434 112.62 62.4208C112.62 62.4569 113.256 66.1092 114.094 70.3883C114.548 72.6304 114.749 73.9401 114.13 74.7403C113.439 75.6501 111.855 75.7411 108.452 75.9636L107.087 76.0551C102.446 76.355 102.446 76.3549 101.577 81.2666C101.504 81.6896 101.422 82.1533 101.331 82.631C100.963 84.6365 99.9941 89.9525 100.249 92.7311C100.253 92.7554 100.253 92.7802 100.249 92.8039C100.137 93.4048 100.068 94.0125 100.039 94.623C100.051 94.7004 100.032 94.7789 99.9856 94.8421C99.9399 94.9048 99.871 94.9472 99.7936 94.9596L99.753 94.9551Z" fill="#2467D4"/>
<path d="M108.154 80.0793H108.108C104.691 79.5563 103.053 76.5958 102.985 76.4682C102.953 76.3999 102.948 76.3225 102.972 76.2508C102.995 76.1791 103.045 76.1192 103.112 76.083C103.178 76.0475 103.255 76.0379 103.328 76.0571C103.401 76.0763 103.463 76.1226 103.504 76.1864C103.504 76.2135 105.078 79.0153 108.199 79.4925C108.237 79.4981 108.275 79.5111 108.308 79.5314C108.342 79.5512 108.371 79.5777 108.394 79.6088C108.417 79.6399 108.434 79.6754 108.443 79.7133C108.453 79.7511 108.455 79.7906 108.449 79.8291C108.437 79.8991 108.401 79.9623 108.347 80.0081C108.293 80.0538 108.224 80.0793 108.154 80.0793Z" fill="black"/>
<path d="M108.155 80.0794C108.1 80.0794 108.047 80.0635 108 80.0336C107.29 79.6208 106.67 79.0684 106.178 78.4105C105.685 77.7526 105.33 77.0026 105.134 76.2046C105.127 76.1667 105.127 76.1272 105.135 76.0894C105.143 76.051 105.159 76.0148 105.18 75.9826C105.202 75.951 105.231 75.9233 105.263 75.9019C105.296 75.881 105.332 75.8663 105.371 75.8589C105.409 75.8522 105.448 75.8522 105.486 75.8601C105.524 75.8686 105.56 75.8838 105.593 75.9058C105.624 75.9279 105.652 75.9555 105.673 75.9883C105.694 76.021 105.709 76.0572 105.716 76.0956C106.092 77.5368 107.025 78.7697 108.31 79.5248C108.365 79.5586 108.407 79.6101 108.431 79.6705C108.454 79.7309 108.458 79.7975 108.44 79.8597C108.423 79.9224 108.385 79.9777 108.334 80.0172C108.283 80.0568 108.22 80.0782 108.155 80.0794Z" fill="black"/>
<path d="M127.438 61.0156C126.665 57.8321 125.309 51.8746 124.03 46.3129L117.374 45.8306L112.224 49.4687L109.261 53.4209L107.742 55.4991C108.274 58.0366 108.734 60.1239 108.916 61.0015C108.088 67.6594 109.134 68.2784 110.954 68.2784L116.223 66.0408L128.389 65.1948C128.098 63.8213 127.779 62.4253 127.438 61.0156Z" fill="#EB459F"/>
<path d="M114.819 57.5109C115.2 55.2881 115.006 53.3995 114.384 53.2928C113.763 53.1861 112.949 54.9018 112.566 57.1246C112.185 59.3475 112.38 61.2361 113.001 61.3428C113.623 61.4495 114.437 59.7344 114.819 57.5109Z" fill="black"/>
<path d="M109.973 52.1743C110.264 51.6423 110.582 51.1194 110.924 50.6196C114.259 45.7808 117.426 44.5027 120.442 44.5027H124.214C124.269 44.5021 124.322 44.5151 124.371 44.5406C124.419 44.5654 124.462 44.6016 124.493 44.6462C124.525 44.6908 124.545 44.7422 124.553 44.7964C124.561 44.8506 124.555 44.906 124.537 44.9573L124.05 46.3218C118.263 46.3218 116.206 46.167 111.383 51.2193L109.281 53.4207L109.973 52.1743Z" fill="#D11583"/>
<path d="M128.388 65.1678H118.56C116.358 65.1678 113.661 65.0492 110.953 68.2508L111.281 69.6152C112.86 68.1056 114.311 67.446 117.46 67.446H128.856L128.388 65.1678Z" fill="black"/>
<path d="M111.365 51.3652C109.372 51.7424 107.802 52.7567 106.911 54.617C106.665 55.127 106.3 55.5703 105.845 55.9086L100.481 59.8105C99.8862 60.2431 99.4733 60.8824 99.3237 61.6025C99.174 62.3231 99.2977 63.0736 99.6715 63.7079C99.933 64.1523 100.306 64.5205 100.754 64.7764C101.201 65.0328 101.708 65.1672 102.224 65.1677H104.449C109.071 62.571 111.233 60.8152 112.311 59.8015C113.389 58.7872 114.64 56.9997 114.44 54.9079C114.24 52.816 113.612 50.9512 111.365 51.3652Z" fill="#CFEFFF"/>
<path d="M113.014 36.0127C112.308 34.8482 111.372 33.2522 111.021 32.5242C110.671 31.7968 109.792 31.9606 111.021 35.2847C108.027 34.1434 107.422 34.5573 107.258 34.9758C107.095 35.3937 107.777 35.6168 109.024 36.3397C110.27 37.0632 111.599 37.9182 111.599 37.9182L113.014 36.0127Z" fill="#66BCFF"/>
<path d="M116.124 36.1123C116.629 35.4984 116.798 34.8026 116.502 34.557C116.206 34.3113 115.888 34.4429 115.433 35.0342C115.244 35.2849 115.032 35.5182 114.8 35.73C114.309 36.1852 114.413 36.5624 114.659 36.7669C114.905 36.9719 115.619 36.7262 116.124 36.1123Z" fill="black"/>
<path d="M121.16 34.261C119.439 33.498 117.761 32.6413 116.132 31.6965C114.154 30.4094 113.826 29.2449 114.531 28.8676C115.236 28.4904 116.497 29.3906 117.434 30.6048C117.402 28.4904 117.743 28.0442 118.321 28.0126C118.899 27.981 118.944 28.7993 118.99 29.9954C119.035 31.1916 119.208 31.6643 120.118 32.4465C120.644 32.9293 121.009 33.5636 121.16 34.261Z" fill="#3442D9"/>
<path d="M108.192 44.1297C107.351 44.1297 106.659 43.4113 107.305 42.179C107.951 40.9467 110.09 39.6597 111.127 39.2096C112.164 38.7589 112.642 39.2096 112.688 39.5687C112.733 39.9279 112.551 40.4373 111.823 41.3878C111.095 42.3383 109.707 44.1297 108.192 44.1297Z" fill="white"/>
<path d="M108.833 44.0296C108.668 44.0827 108.497 44.116 108.324 44.1295L107.637 41.6875C107.762 41.526 107.899 41.3741 108.046 41.2329L108.833 44.0296Z" fill="#8CD9FF"/>
<path d="M110.697 42.7242C110.566 42.87 110.426 43.0083 110.279 43.1382L109.438 40.1552C109.588 40.0501 109.742 39.9547 109.892 39.8638L110.697 42.7242Z" fill="#8CD9FF"/>
<path d="M112.344 40.6462C112.227 40.8377 112.099 41.0229 111.962 41.2014L111.375 39.1276C111.539 39.0672 111.71 39.0333 111.885 39.0271L112.344 40.6462Z" fill="#8CD9FF"/>
<path d="M113.405 39.7461C113.375 39.7507 113.345 39.7507 113.314 39.7461C112.715 39.5524 112.13 39.3135 111.567 39.0317C111.533 39.0131 111.503 38.9877 111.479 38.9572C111.454 38.9272 111.436 38.8922 111.426 38.855C111.415 38.8171 111.411 38.7781 111.416 38.7397C111.421 38.7008 111.432 38.6635 111.451 38.6296C111.47 38.5957 111.495 38.5652 111.526 38.541C111.556 38.5172 111.591 38.4992 111.628 38.4884C111.666 38.4771 111.705 38.4743 111.744 38.4783C111.783 38.4828 111.82 38.4946 111.854 38.5133C112.385 38.7742 112.934 38.9978 113.496 39.1819C113.564 39.2034 113.621 39.248 113.659 39.3084C113.696 39.3683 113.711 39.44 113.7 39.5101C113.689 39.5801 113.653 39.6433 113.599 39.6897C113.545 39.7354 113.476 39.7602 113.405 39.7597V39.7461Z" fill="black"/>
<path d="M114.211 76.1004C114.168 76.1004 114.125 76.0908 114.086 76.0728C114.046 76.0547 114.012 76.0287 113.984 75.9959L110.721 72.0348C110.695 72.0048 110.675 71.9704 110.664 71.9331C110.651 71.8953 110.646 71.8557 110.649 71.8168C110.652 71.7772 110.664 71.7388 110.682 71.7038C110.7 71.6688 110.725 71.6377 110.755 71.6129C110.786 71.5875 110.821 71.5689 110.858 71.5576C110.896 71.5457 110.936 71.5423 110.975 71.5463C111.014 71.5502 111.053 71.5626 111.087 71.5813C111.122 71.6005 111.152 71.6264 111.176 71.6575L114.438 75.6181C114.463 75.648 114.482 75.6825 114.494 75.7192C114.505 75.7565 114.509 75.7955 114.505 75.8339C114.501 75.8723 114.49 75.9095 114.471 75.944C114.453 75.9779 114.428 76.0078 114.398 76.0321C114.345 76.0756 114.279 76.0993 114.211 76.1004Z" fill="black"/>
<path d="M113.499 70.661H112.339L111.98 69.0148L111.652 67.4961C111.957 67.1934 112.284 66.9139 112.63 66.6592L112.994 68.337L113.499 70.661Z" fill="#3442D9"/>
<path d="M118.649 69.0652H117.489L117.143 67.4596L116.656 65.213C117.052 65.1814 117.434 65.1724 117.807 65.1724L118.299 67.4461L118.649 69.0652Z" fill="#3442D9"/>
<path d="M128.117 69.0013H126.957L126.625 67.455L126.129 65.1677H127.289L127.785 67.455L128.117 69.0013Z" fill="#3442D9"/>
<path d="M124.934 50.2465C124.374 49.7879 123.68 49.523 122.956 49.4914C121.404 49.4914 120.54 51.0241 120.253 52.4614C120.198 52.7302 120.04 52.9669 119.811 53.1182C119.582 53.2701 119.303 53.3249 119.033 53.2707C118.765 53.2165 118.528 53.0578 118.376 52.8291C118.224 52.6003 118.169 52.3208 118.224 52.052C118.788 49.2418 120.649 47.4221 122.956 47.4221C123.337 47.4295 123.706 47.565 124.001 47.8079C124.296 48.0507 124.5 48.3862 124.58 48.7595C124.707 49.2553 124.821 49.7551 124.934 50.2465Z" fill="white"/>
<path d="M127.443 61.0338C127.508 61.2992 127.519 61.5748 127.474 61.8442C127.43 62.1136 127.331 62.3711 127.184 62.6015C127.037 62.8314 126.844 63.0296 126.618 63.1827C126.392 63.3363 126.137 63.4419 125.869 63.4938C125.624 63.5362 125.376 63.5577 125.127 63.5577C123.421 63.5577 121.665 62.5479 120.313 60.7881C120.155 60.569 120.089 60.2973 120.128 60.0302C120.168 59.7631 120.31 59.5219 120.524 59.3576C120.739 59.1938 121.009 59.1198 121.277 59.1514C121.545 59.1836 121.79 59.3186 121.961 59.5281C122.911 60.7745 124.072 61.4884 125.145 61.4884C125.587 61.4737 126.016 61.3393 126.386 61.0987C126.757 60.8581 127.054 60.5215 127.247 60.1239C127.32 60.4334 127.389 60.7243 127.456 60.9971L127.443 61.0338Z" fill="#2331B5"/>
<path d="M125.442 52.534C125.232 52.5289 125.025 52.5916 124.853 52.713C124.681 52.8339 124.553 53.0072 124.487 53.2066L123.235 56.5765C123.13 56.8933 123.136 57.2373 123.251 57.5501C123.367 57.8636 123.586 58.1284 123.873 58.3001C124 58.3803 124.144 58.43 124.294 58.4458C124.444 58.4622 124.595 58.4436 124.737 58.3922C124.879 58.3413 125.007 58.2583 125.112 58.1499C125.217 58.042 125.295 57.9116 125.342 57.7681L126.147 55.5944C125.942 54.6213 125.706 53.5935 125.442 52.534Z" fill="#5865F2"/>
<path d="M123.89 58.3002C123.603 58.1279 123.384 57.8625 123.269 57.5479C123.154 57.2334 123.15 56.8889 123.258 56.572L123.595 55.6628C123.656 55.5013 123.752 55.3556 123.875 55.2341C123.998 55.1133 124.146 55.0207 124.308 54.9619C124.471 54.9032 124.644 54.88 124.816 54.8942C124.988 54.9083 125.155 54.9597 125.306 55.0444C125.552 55.185 125.74 55.4086 125.836 55.6746C125.934 55.9412 125.932 56.2337 125.833 56.4992L125.378 57.7727C125.331 57.9178 125.251 58.05 125.145 58.159C125.038 58.268 124.908 58.3516 124.764 58.4024C124.62 58.4532 124.467 58.4707 124.315 58.4527C124.164 58.4352 124.018 58.3832 123.89 58.3002Z" fill="#FFE75C"/>
<path d="M104.967 64.7268C104.896 64.7263 104.827 64.7014 104.773 64.6557C104.719 64.6099 104.683 64.5461 104.671 64.4766C104.66 64.3987 104.68 64.3202 104.726 64.257C104.771 64.1931 104.84 64.1496 104.916 64.1355C106.01 63.8915 107.045 63.4369 107.965 62.7982C107.998 62.7767 108.034 62.7621 108.072 62.7547C108.111 62.7474 108.15 62.7474 108.188 62.7553C108.227 62.7632 108.263 62.7784 108.295 62.7999C108.328 62.8219 108.355 62.8501 108.377 62.8823C108.398 62.9151 108.413 62.9512 108.421 62.9896C108.428 63.028 108.428 63.0676 108.42 63.1054C108.412 63.1438 108.397 63.18 108.375 63.2127C108.353 63.2449 108.325 63.2726 108.293 63.294C107.304 63.9825 106.189 64.4676 105.013 64.7217L104.967 64.7268Z" fill="#A3D7FF"/>
<path d="M119.621 106.556H114.425C112.838 106.513 111.315 105.919 110.118 104.877C108.92 103.835 108.122 102.41 107.86 100.844C107.432 97.7885 109.443 96.0326 112.865 95.2827L113.47 95.146C113.952 95.0409 114.376 94.7574 114.658 94.3525C114.94 93.9476 115.058 93.4517 114.989 92.9632C114.925 92.495 114.706 92.0619 114.368 91.7321C114.029 91.4022 113.589 91.1955 113.119 91.1441L112.264 91.0442C108.574 90.6438 106.135 88.4791 105.694 85.3368C105.574 84.641 105.61 83.9277 105.801 83.2478C105.991 82.5684 106.33 81.9392 106.794 81.4072C107.257 80.8747 107.833 80.4517 108.481 80.1699C109.127 79.8875 109.829 79.7525 110.535 79.7745H115.708C117.292 79.8225 118.812 80.4178 120.006 81.4592C121.201 82.5006 121.997 83.9243 122.26 85.487L124.444 100.99C124.562 101.684 124.525 102.396 124.336 103.074C124.146 103.752 123.809 104.38 123.348 104.912C122.887 105.444 122.314 105.868 121.669 106.152C121.024 106.437 120.325 106.574 119.621 106.556Z" fill="#ADB4FF"/>
<path d="M125.654 106.556H120.463C118.873 106.518 117.347 105.927 116.148 104.884C114.948 103.841 114.151 102.412 113.893 100.844C113.719 99.6913 113.972 98.5138 114.604 97.5334C115.237 96.553 116.205 95.8368 117.328 95.5189C117.745 95.3997 118.106 95.1354 118.345 94.7734C118.585 94.4114 118.687 93.976 118.633 93.5456L118.47 92.4269C118.418 92.0632 118.254 91.7249 118.002 91.4583C117.749 91.1917 117.42 91.0105 117.059 90.9393C115.711 90.6507 114.48 89.964 113.526 88.9683C112.572 87.9726 111.939 86.7138 111.709 85.355C111.59 84.6598 111.627 83.9465 111.817 83.2671C112.008 82.5877 112.347 81.9592 112.81 81.4272C113.274 80.8946 113.849 80.4722 114.496 80.1898C115.143 79.9068 115.844 79.7713 116.55 79.7933H121.741C123.328 79.8362 124.851 80.4292 126.049 81.4701C127.248 82.5109 128.047 83.9358 128.311 85.5007L130.495 100.976C130.617 101.673 130.582 102.388 130.393 103.07C130.204 103.751 129.865 104.382 129.401 104.917C128.938 105.451 128.361 105.875 127.713 106.159C127.065 106.443 126.361 106.578 125.654 106.556Z" fill="#EDF9FF"/>
<path d="M124.34 85.0273C124.366 85.1741 124.358 85.3244 124.319 85.4678C124.279 85.6112 124.208 85.7445 124.11 85.8569C124.012 85.9693 123.891 86.0585 123.755 86.1178C123.618 86.1771 123.47 86.2059 123.321 86.2009H117.834C117.506 86.1941 117.19 86.0732 116.941 85.8592C116.692 85.6451 116.525 85.3509 116.469 85.0273L116.442 84.8454C116.415 84.6992 116.422 84.549 116.461 84.4049C116.5 84.2615 116.571 84.1288 116.668 84.0164C116.765 83.904 116.887 83.8142 117.023 83.7549C117.16 83.6956 117.307 83.6674 117.457 83.6725H122.943C123.271 83.6809 123.586 83.8024 123.835 84.0158C124.083 84.2299 124.251 84.523 124.308 84.8454L124.34 85.0273Z" fill="#66BCFF"/>
<path d="M121.98 87.2242C122.005 87.371 121.997 87.5218 121.957 87.6653C121.916 87.8093 121.845 87.942 121.747 88.0549C121.649 88.1673 121.527 88.2571 121.39 88.317C121.254 88.3769 121.106 88.4062 120.956 88.4017H120.802C120.473 88.3949 120.156 88.2735 119.907 88.0583C119.658 87.8432 119.492 87.5484 119.437 87.2242L118.795 82.6491C118.771 82.5017 118.778 82.3509 118.819 82.2075C118.859 82.064 118.931 81.9308 119.029 81.8184C119.126 81.7054 119.248 81.6162 119.385 81.5558C119.522 81.4959 119.67 81.4671 119.819 81.4711H119.983C120.312 81.4784 120.628 81.5998 120.877 81.8144C121.126 82.0296 121.293 82.3244 121.348 82.6491L121.98 87.2242Z" fill="#66BCFF"/>
<path d="M123.316 104.542H123.166C122.837 104.534 122.52 104.413 122.271 104.198C122.022 103.983 121.856 103.688 121.801 103.364L121.774 103.168V103.086C121.761 102.945 121.778 102.802 121.825 102.667C121.871 102.532 121.945 102.409 122.043 102.306C122.141 102.202 122.259 102.121 122.391 102.066C122.523 102.012 122.664 101.986 122.807 101.99H122.961C123.287 101.996 123.601 102.114 123.849 102.325C124.098 102.536 124.267 102.826 124.326 103.146L124.349 103.341C124.379 103.491 124.376 103.646 124.337 103.794C124.299 103.941 124.227 104.079 124.128 104.195C124.028 104.311 123.903 104.402 123.762 104.462C123.622 104.523 123.469 104.55 123.316 104.542Z" fill="#FF78B9"/>
<path d="M125.509 102.309C125.179 102.302 124.863 102.18 124.614 101.965C124.365 101.75 124.198 101.455 124.144 101.131V100.977C124.118 100.83 124.126 100.681 124.166 100.538C124.206 100.395 124.278 100.263 124.376 100.151C124.473 100.04 124.595 99.9515 124.731 99.8927C124.867 99.834 125.014 99.8064 125.163 99.812H125.322C125.644 99.8165 125.955 99.9311 126.203 100.136C126.451 100.341 126.622 100.625 126.687 100.94L126.714 101.131C126.739 101.278 126.731 101.429 126.691 101.572C126.65 101.716 126.579 101.849 126.481 101.961C126.383 102.074 126.261 102.164 126.125 102.224C125.988 102.284 125.839 102.313 125.69 102.309H125.509Z" fill="#66BCFF"/>
<path d="M125.663 102.309H125.509C125.179 102.302 124.863 102.18 124.614 101.965C124.365 101.75 124.198 101.455 124.144 101.131V100.977C124.118 100.83 124.126 100.681 124.166 100.538C124.206 100.395 124.278 100.263 124.376 100.151C124.473 100.04 124.595 99.9515 124.731 99.8927C124.867 99.834 125.014 99.8064 125.163 99.812H125.322C125.644 99.8165 125.955 99.9311 126.203 100.136C126.451 100.341 126.622 100.625 126.687 100.94L126.714 101.131C126.74 101.28 126.731 101.433 126.689 101.579C126.648 101.725 126.573 101.86 126.472 101.973C126.371 102.086 126.246 102.175 126.106 102.233C125.966 102.291 125.815 102.317 125.663 102.309Z" fill="#5865F2"/>
<path d="M72.1373 100.608L69.2435 98.9936C71.5172 95.2781 74.0106 91.7021 76.7095 88.2837C71.3958 90.2208 65.79 92.6221 59.6071 92.6221H49.2744C48.6605 91.3576 48.4922 90.0525 48.4922 88.0741L61.1037 83.4951L65.8905 84.4501L66.0312 85.814C70.5814 84.65 75.3264 83.3223 78.7709 82.5215C83.0613 81.5258 84.5217 83.6725 82.0284 87.3061C77.215 94.3096 72.1373 100.608 72.1373 100.608Z" fill="#29CC7A"/>
<path d="M52.1367 86.8786C52.1367 89.4025 52.1367 91.1758 53.3379 92.2127C53.6446 92.4713 54.0326 92.6137 54.4341 92.6131H55.6715C52.6461 92.1218 52.6461 90.4845 52.6461 86.8786V86.642C52.6523 86.612 52.6523 86.581 52.6461 86.551L52.1503 86.7329L52.1367 86.8786Z" fill="#15AD75"/>
<path d="M72.1374 99.5661C72.0713 99.5655 72.0075 99.5429 71.9556 99.5028C71.9245 99.4791 71.898 99.4503 71.8782 99.4164C71.8584 99.3831 71.846 99.3459 71.8409 99.3075C71.8358 99.2685 71.8387 99.2295 71.8488 99.1917C71.859 99.1544 71.8771 99.1194 71.9008 99.0889C75.9958 93.7136 79.2759 89.1063 80.7183 86.7688C80.9323 86.4232 81.5829 85.3727 81.3875 85.1316C81.2554 84.9638 80.5093 84.7272 76.4459 86.1007C75.1312 86.5553 73.8802 86.9828 72.7106 87.3923C68.052 89.0199 64.9763 90.0935 63.7616 89.6202C62.4558 89.1063 62.5468 87.9378 62.6738 86.3232C62.7106 85.8957 62.7467 85.414 62.7648 84.8724C62.7648 84.7944 62.7964 84.7193 62.8517 84.6634C62.9071 84.608 62.9822 84.577 63.0607 84.577C63.1392 84.577 63.2143 84.608 63.2697 84.6634C63.3256 84.7193 63.3566 84.7944 63.3566 84.8724C63.3566 85.414 63.3018 85.9092 63.2657 86.3509C63.1381 88.0152 63.12 88.7065 63.9795 89.0431C64.9854 89.4384 68.3067 88.279 72.5152 86.8055C73.6843 86.3961 74.9358 85.9595 76.255 85.5139C80.3224 84.1495 81.4327 84.2133 81.8557 84.7363C82.2792 85.2592 81.815 86.1007 81.2237 87.0557C79.7723 89.4113 76.4645 94.0315 72.374 99.4255C72.3486 99.4661 72.3142 99.5 72.2729 99.5243C72.2317 99.5492 72.1854 99.5633 72.1374 99.5661Z" fill="#15AD75"/>
<path d="M53.5548 70.443C51.4409 67.155 49.6896 63.6479 48.332 59.9832C48.1439 59.3699 48.1027 58.721 48.2122 58.089C48.3212 57.4571 48.5771 56.8596 48.9594 56.3451C51.1388 53.7393 53.9642 52.3382 57.7724 51.6836C58.1959 51.635 58.6212 51.7559 58.9555 52.0202C63.4555 55.9492 64.8019 60.4153 65.5575 64.7537C65.5886 65.0022 65.5507 65.2546 65.4479 65.4834C65.3452 65.7121 65.1819 65.908 64.9747 66.0498C63.8943 66.7591 62.745 67.3583 61.5444 67.8367L61.9996 71.1478L53.5548 70.443Z" fill="#FFD751"/>
<path d="M57.9102 59.3552C60.1308 59.5664 62.3367 59.9098 64.5166 60.3831C64.7533 60.4333 65.3129 60.5745 65.7359 60.6835C65.7806 60.6982 65.8207 60.7236 65.8523 60.7581C65.8839 60.7925 65.9065 60.8343 65.9184 60.8795C65.9297 60.9247 65.9291 60.9727 65.9172 61.0179C65.9054 61.063 65.8822 61.1043 65.8495 61.1382L65.5948 61.3657L66.077 63.1848C66.2256 63.7501 66.1827 64.3488 65.9545 64.8864C65.7269 65.4246 65.3265 65.8725 64.8171 66.1588L63.7113 66.7817L57.9102 59.3552Z" fill="#FFD751"/>
<path d="M58.7285 61.2349C59.2994 60.8368 59.1893 59.6943 58.4822 58.6834C57.7757 57.6725 56.7405 57.176 56.1701 57.5742C55.5992 57.9729 55.7093 59.1154 56.4164 60.1263C57.1229 61.1372 58.1581 61.6336 58.7285 61.2349Z" fill="#FF78B9"/>
<path d="M62.3619 57.4181C62.0118 57.1182 61.6114 57.0087 61.4521 57.177C61.2929 57.3453 61.3793 57.5412 61.7204 57.8005C61.8627 57.9129 61.9937 58.0394 62.1118 58.1777C62.371 58.4686 62.5895 58.4144 62.7121 58.2732C62.8352 58.132 62.7076 57.7231 62.3619 57.4181Z" fill="black"/>
<path d="M50.5631 54.7757C50.0718 50.0007 50.5631 48.4092 51.5825 47.0448C52.6013 45.6803 53.1655 46.0536 53.0018 47.8908C52.882 49.332 52.8911 50.7806 53.0289 52.2202C53.9065 49.9696 55.1879 47.8987 56.8099 46.1078C57.2792 45.5295 57.914 45.1088 58.6301 44.9026C59.3168 44.7298 59.7127 45.1393 59.5077 45.8125C59.1576 46.9809 58.2839 48.8 55.9774 52.1066L56.2095 53.4208L50.5631 54.7757Z" fill="#FFD751"/>
<path d="M64.4319 73.267C66.9524 74.1175 65.1734 82.0212 65.1734 82.0212L65.5377 82.2991C65.8257 82.5188 66.0285 82.8316 66.1115 83.184C66.1945 83.5364 66.1522 83.9064 65.9929 84.2317L65.8879 84.4406C64.1179 84.4406 62.9579 84.6134 60.6102 86.2964C58.2626 87.9788 56.6976 88.0652 54.2404 88.0652H48.494V86.1236C46.3149 85.255 46.142 84.2091 46.9564 82.8762C47.4114 82.1076 48.1394 81.0255 48.6623 80.2434C49.0723 79.6233 49.2231 78.8671 49.0814 78.1374C48.7787 76.804 48.7459 75.4232 48.9854 74.0768L55.2778 72.3803L63.2855 72.0347L64.4319 73.267Z" fill="#2331B5"/>
<path d="M64.2589 80.2173C65.0145 80.0174 65.2772 78.5344 64.8457 76.9051C64.4142 75.2763 63.4519 74.1174 62.6962 74.3174C61.9412 74.5173 61.6785 76.0003 62.11 77.6291C62.5415 79.2584 63.5038 80.4172 64.2589 80.2173Z" fill="black"/>
<path d="M68.1172 99.1936C68.8497 98.4385 70.392 97.1836 70.392 97.1836C71.3792 97.1836 72.8532 97.3654 73.5224 100.08C74.068 102.313 74.3182 103.264 74.3182 103.264C77.3803 103.814 77.3938 104.678 76.9799 105.81V106.329C76.9799 106.39 76.9556 106.45 76.9121 106.493C76.8686 106.536 76.8093 106.561 76.7478 106.561H71.6294L68.1172 99.1936Z" fill="white"/>
<path d="M76.7276 106.556C76.7891 106.556 76.8478 106.532 76.8913 106.489C76.9348 106.445 76.9597 106.386 76.9597 106.324V105.806C74.935 105.806 73.465 106.006 72.728 104.692C71.9147 103.127 71.2099 101.509 70.6169 99.8489C70.3441 99.0526 69.7664 98.1524 68.9244 98.4206C68.6194 98.6934 68.3285 98.9662 68.1055 99.1938L71.6273 106.556H76.7276Z" fill="#FF78B9"/>
<path d="M74.558 106.556C74.017 106.562 73.4833 106.431 73.0061 106.175C72.5289 105.92 72.1239 105.549 71.828 105.096C70.9125 103.566 70.1795 101.935 69.6441 100.235C69.1482 98.7749 67.8877 98.5337 67.7742 100.085C67.6742 101.472 68.4564 102.813 69.7034 105.901C69.7796 106.094 69.9118 106.259 70.0829 106.376C70.254 106.492 70.4562 106.555 70.6635 106.556H74.558Z" fill="black"/>
<path d="M64.4303 73.267C66.0365 73.8035 69.1121 74.8545 69.1121 74.8545C69.608 68.3056 71.5784 66.4227 73.8984 61.2112C75.5593 57.4912 76.3466 55.8037 76.6601 55.1401C76.7114 55.0305 76.7933 54.9379 76.8961 54.8735C76.9983 54.8091 77.1169 54.7753 77.2384 54.7764H77.4202C77.5123 54.7758 77.6032 54.7956 77.6873 54.8334C77.7709 54.8713 77.8455 54.9272 77.9059 54.9967C77.9663 55.0661 78.0115 55.1474 78.0375 55.2361C78.0635 55.3242 78.0702 55.4174 78.0573 55.5083C77.767 57.263 77.2994 58.9832 76.6601 60.6425C78.0798 59.6739 78.6757 59.6965 79.3539 60.6425C80.9414 59.8242 81.5378 59.8016 82.0834 61.0339C82.6295 62.2662 82.5798 62.5389 82.2703 63.5442C81.9608 64.5489 81.5288 64.6353 80.8505 64.6353C80.8505 71.5072 80.4185 74.113 77.1791 78.7332C74.2762 82.8717 74.1396 82.3719 70.2089 81.1255C67.934 80.4072 65.736 79.5928 64.262 79.0337C63.4222 78.7242 62.7174 78.1301 62.2713 77.3547C61.8246 76.5793 61.6647 75.6717 61.8189 74.7907C62.0736 73.5719 62.9157 72.7807 64.4303 73.267Z" fill="#FFD751"/>
<path d="M64.4282 73.2667C64.4282 73.2667 64.6377 73.012 64.8834 72.6619C64.9602 72.5518 65.0127 72.4258 65.0381 72.2937C65.0635 72.1615 65.0607 72.026 65.0302 71.8949C65.0003 71.7634 64.9427 71.6402 64.8614 71.5329C64.7806 71.4251 64.6778 71.3358 64.5603 71.2703C56.4527 66.8093 53.5911 66.2954 49.1228 66.2954C46.2612 66.2954 46.3931 67.0319 46.6616 68.3873C44.6096 70.2973 44.646 70.9569 46.0747 72.8256C47.5033 74.695 47.9492 75.4314 49.2595 75.4314C50.5697 75.4314 53.7408 75.4681 56.4573 74.0675C59.1737 72.6664 60.4975 71.948 64.4282 73.2667Z" fill="white"/>
<path d="M64.3243 59.8241C61.0217 59.2463 57.6636 58.9142 57.6275 58.9142C57.5936 58.9108 57.5597 58.9137 57.5275 58.9227C57.4953 58.9323 57.4649 58.9481 57.4389 58.969C57.4123 58.9905 57.3909 59.0165 57.3745 59.0464C57.3587 59.0758 57.3485 59.1085 57.3451 59.1418C57.3417 59.1757 57.3446 59.2102 57.3542 59.2435C57.3638 59.2762 57.3801 59.3067 57.4016 59.3333C57.4231 59.3598 57.4496 59.3824 57.4801 59.3982C57.51 59.4146 57.5434 59.4248 57.5772 59.4282C57.6139 59.4282 61.1442 59.7964 64.5158 60.4012C64.4582 60.2047 64.3944 60.0121 64.3243 59.8241Z" fill="black"/>
<path d="M57.1936 59.8509C57.1473 59.8521 57.1021 59.8408 57.0615 59.8193C56.9914 59.7832 56.9383 59.721 56.9135 59.6459C56.8886 59.5714 56.8949 59.4895 56.9299 59.4189C57.0807 59.1252 57.2529 58.8428 57.4438 58.5729C57.4918 58.5102 57.5618 58.4684 57.6403 58.4566C57.7183 58.4447 57.7979 58.4639 57.8623 58.5096C57.9255 58.5571 57.9668 58.6282 57.9781 58.7067C57.9894 58.7847 57.969 58.8643 57.9216 58.9281C57.7505 59.1687 57.598 59.4229 57.4664 59.6872C57.441 59.7374 57.402 59.7792 57.3534 59.8086C57.3054 59.8374 57.2495 59.8521 57.1936 59.8509Z" fill="black"/>
<path d="M71.0778 75.732H70.9959L69.0209 75.1361C68.9458 75.1135 68.882 75.0622 68.8447 74.9933C68.8069 74.9244 68.7984 74.843 68.821 74.7679C68.843 74.6922 68.8944 74.629 68.9639 74.5911C69.0328 74.5539 69.1141 74.5454 69.1892 74.5674L71.1642 75.1497C71.2353 75.1672 71.2974 75.2112 71.3387 75.2722C71.3793 75.3332 71.3963 75.4072 71.385 75.4801C71.3742 75.5529 71.337 75.619 71.2799 75.6653C71.2229 75.7116 71.1512 75.7353 71.0778 75.732Z" fill="black"/>
<path d="M52.215 54.3758C52.1517 54.5712 52.1105 54.6847 52.106 54.6937C52.0879 54.7446 52.0546 54.7886 52.0105 54.8197C51.9665 54.8507 51.914 54.8671 51.8603 54.8666H51.7784C51.7135 54.8451 51.6593 54.7982 51.6288 54.7372C51.5983 54.6757 51.5932 54.6045 51.6147 54.5396C51.6508 54.4531 52.2788 52.6251 52.852 51.3013C52.8718 51.2516 52.9091 51.2115 52.9565 51.1877C52.9565 51.5289 52.9977 51.8745 53.0294 52.2156C53.0294 52.1975 52.411 53.8348 52.215 54.3758Z" fill="#FFC619"/>
<path d="M79.9788 73.4721C80.0867 73.1541 80.1166 72.8159 80.0669 72.4844C80.0172 72.1528 79.8885 71.8383 79.6919 71.5666C79.5666 71.4012 79.4124 71.2594 79.2373 71.1481C78.8685 70.9426 78.4512 70.8415 78.0293 70.8556C77.6074 70.8703 77.1974 70.9996 76.8439 71.23C77.1144 69.839 77.1912 68.417 77.0715 67.0051C76.9303 66.0224 76.3706 65.7728 76.0521 65.718C75.0785 65.5362 73.7773 66.5595 72.6399 68.36C72.4309 67.3914 72.1079 66.891 71.6482 66.7956C71.52 66.769 71.3861 66.7865 71.2692 66.8453C71.1517 66.9035 71.058 67 71.0021 67.1186C70.8428 67.4643 70.6926 67.8099 70.5469 68.1691C71.1387 67.305 71.4573 67.2598 71.5437 67.305C71.6301 67.3507 72.026 67.5236 72.2485 69.1241C72.2547 69.1777 72.2779 69.228 72.3151 69.2675C72.3518 69.3065 72.4004 69.333 72.4535 69.3426C72.5071 69.3533 72.563 69.3471 72.6127 69.324C72.663 69.3014 72.7042 69.263 72.7308 69.215C73.9732 66.9774 75.2789 66.0908 75.9567 66.2184C76.3616 66.2958 76.5073 66.7233 76.5575 67.0735C76.8213 68.8925 76.221 71.762 76.2113 71.7937C76.2006 71.8484 76.208 71.9055 76.2317 71.9563C76.2554 72.0071 76.2944 72.0489 76.3435 72.0755C76.3926 72.1026 76.4485 72.1127 76.5039 72.1043C76.5587 72.0958 76.6095 72.0698 76.6485 72.0303C77.3217 71.3571 78.3134 71.1662 78.9594 71.5757C79.7925 72.1122 79.8698 73.5037 79.1961 75.4002C79.501 74.7761 79.7625 74.1317 79.9788 73.4721Z" fill="#FFE591"/>
<path d="M79.3699 61.9572C79.3219 61.9572 79.2744 61.9453 79.2315 61.9233C79.1886 61.9013 79.1519 61.8691 79.1242 61.8295C78.5691 61.0293 78.5052 61.0202 77.4316 61.5884C77.3746 61.6194 77.3091 61.6313 77.2453 61.6211C77.1809 61.6115 77.1216 61.5805 77.077 61.5342C76.4354 60.8745 76.244 60.9835 75.4251 61.4478L75.1794 61.5884C75.1111 61.62 75.0326 61.6245 74.9608 61.6014C74.8891 61.5776 74.8287 61.528 74.792 61.4619C74.7547 61.3958 74.7445 61.3184 74.7626 61.245C74.7801 61.171 74.8253 61.1072 74.8886 61.0654L75.1342 60.9293C75.935 60.4741 76.4992 60.1652 77.3452 60.9655C78.4601 60.3968 78.8785 60.438 79.6201 61.4884C79.6641 61.5539 79.6805 61.6336 79.6664 61.7115C79.6517 61.7889 79.6076 61.8572 79.5427 61.9024C79.4924 61.9385 79.432 61.9577 79.3699 61.9572Z" fill="#FFB119"/>
<path d="M81.3763 64.5352C81.3763 63.6898 81.2577 62.4344 81.2532 62.3796C81.2509 62.3457 81.2419 62.3129 81.2266 62.2825C81.2114 62.252 81.1905 62.2254 81.1645 62.2034C81.1385 62.1814 81.1086 62.1644 81.0764 62.1542C81.0436 62.1441 81.0097 62.1401 80.9759 62.1435C80.942 62.1463 80.9087 62.1559 80.8782 62.1718C80.8477 62.187 80.8206 62.209 80.7991 62.235C80.7771 62.2615 80.7601 62.2915 80.75 62.3242C80.7398 62.357 80.7364 62.3914 80.7392 62.4253C80.7392 62.4253 80.8482 63.7124 80.8624 64.5443C80.8618 64.5827 80.8708 64.6205 80.8895 64.6538C81.0419 64.6555 81.1939 64.6431 81.3446 64.6171C81.3599 64.5923 81.3706 64.5646 81.3763 64.5352Z" fill="black"/>
<path d="M81.7274 63.5215H81.0632C81.0265 63.526 80.9892 63.5232 80.9536 63.5125C80.9186 63.5017 80.8859 63.4837 80.8582 63.4594C80.83 63.4351 80.8079 63.4052 80.7927 63.3713C80.7774 63.338 80.7695 63.3012 80.7695 63.2645C80.7695 63.2273 80.7774 63.1911 80.7927 63.1572C80.8079 63.1233 80.83 63.0934 80.8582 63.0691C80.8859 63.0448 80.9186 63.0268 80.9536 63.016C80.9892 63.0053 81.0265 63.0025 81.0632 63.0076H81.7274C81.7641 63.0025 81.8013 63.0053 81.8364 63.016C81.8719 63.0268 81.9047 63.0448 81.9324 63.0691C81.96 63.0934 81.9826 63.1233 81.9979 63.1572C82.0131 63.1911 82.021 63.2273 82.021 63.2645C82.021 63.3012 82.0131 63.338 81.9979 63.3713C81.9826 63.4052 81.96 63.4351 81.9324 63.4594C81.9047 63.4837 81.8719 63.5017 81.8364 63.5125C81.8013 63.5232 81.7641 63.526 81.7274 63.5215Z" fill="black"/>
<path d="M72.5859 81.0026H72.4583C72.4165 81.0077 72.3735 81.0038 72.3329 80.9913C72.2922 80.9789 72.2544 80.9574 72.2228 80.9292C72.1911 80.9015 72.1652 80.8665 72.1476 80.8281C72.1301 80.7892 72.1211 80.7474 72.1211 80.7044C72.1211 80.6621 72.1301 80.6203 72.1476 80.5813C72.1652 80.5424 72.1911 80.5079 72.2228 80.4797C72.2544 80.4514 72.2922 80.4305 72.3329 80.4181C72.3735 80.4051 72.4165 80.4017 72.4583 80.4068C73.0687 80.4051 73.6776 80.352 74.2785 80.2476C74.3169 80.2408 74.3558 80.2414 74.3937 80.2498C74.4321 80.2577 74.4676 80.2735 74.4998 80.2956C74.5315 80.3182 74.5586 80.3464 74.5795 80.3791C74.6009 80.4113 74.615 80.448 74.6218 80.4864C74.6286 80.5243 74.628 80.5638 74.6196 80.6017C74.6117 80.6395 74.5958 80.6756 74.5738 80.7073C74.5512 80.7395 74.523 80.7666 74.4902 80.7875C74.458 80.8084 74.4213 80.823 74.3829 80.8298C73.7894 80.9337 73.1885 80.9919 72.5859 81.0026Z" fill="#FFC619"/>
<path d="M53.4482 87.201C50.036 86.7463 48.5253 86.146 48.5117 86.137V86.687C50.1026 87.2027 51.7432 87.5483 53.407 87.7194H53.4392C53.5024 87.716 53.5623 87.6895 53.6075 87.6449C53.6527 87.5997 53.6792 87.5404 53.6832 87.4766C53.6871 87.4133 53.6679 87.3506 53.6289 87.3009C53.5894 87.2507 53.5335 87.2168 53.4708 87.2055L53.4482 87.201Z" fill="black"/>
<path d="M64.0589 87.333C63.9866 87.3347 63.9166 87.3087 63.863 87.2601C63.8336 87.2347 63.8099 87.2031 63.7924 87.1686C63.7749 87.1336 63.7647 87.0952 63.7624 87.0568C63.7596 87.0178 63.7653 86.9789 63.7777 86.9416C63.7901 86.9049 63.8099 86.871 63.8359 86.8416C64.4198 86.2339 65.1449 85.7793 65.9469 85.5184C65.9842 85.5071 66.0237 85.5032 66.0621 85.5071C66.1011 85.5105 66.1389 85.5224 66.1734 85.5404C66.2078 85.5591 66.2383 85.5839 66.2632 85.6138C66.2874 85.6443 66.3061 85.6788 66.3179 85.7161C66.3292 85.7533 66.3332 85.7929 66.3292 85.8313C66.3253 85.8702 66.314 85.9081 66.2954 85.9425C66.2773 85.977 66.2524 86.0075 66.2219 86.0323C66.192 86.0566 66.157 86.0752 66.1197 86.0865C65.4313 86.3198 64.8072 86.7123 64.3001 87.233C64.2701 87.2669 64.2329 87.294 64.1911 87.3115C64.1493 87.3284 64.1041 87.3363 64.0589 87.333Z" fill="black"/>
<path d="M76.9654 88.5791C76.9077 88.5796 76.8518 88.5633 76.8033 88.5328C76.7553 88.5023 76.7163 88.4582 76.692 88.4063C76.6756 88.3712 76.666 88.3334 76.6643 88.2944C76.6626 88.2555 76.6689 88.2165 76.6824 88.1804C76.696 88.1437 76.7169 88.1103 76.7434 88.0821C76.7699 88.0538 76.8021 88.0313 76.8377 88.0155C78.0248 87.4981 79.1701 86.8899 80.2635 86.1964C80.3296 86.1535 80.4092 86.1376 80.486 86.1518C80.5634 86.1664 80.6317 86.2099 80.6775 86.2737C80.7215 86.3393 80.7373 86.42 80.7215 86.4974C80.7063 86.5748 80.6611 86.6431 80.5956 86.6871C79.4779 87.4021 78.3049 88.0273 77.0879 88.5565C77.0489 88.5729 77.0071 88.5802 76.9654 88.5791Z" fill="black"/>
<path d="M79.1423 88.3744C79.1017 88.3744 78.0823 88.3473 77.5317 88.306C77.4927 88.3032 77.4549 88.2925 77.4204 88.275C77.3854 88.2575 77.3543 88.2332 77.3289 88.2038C77.3035 88.1739 77.2843 88.14 77.2725 88.1027C77.26 88.0655 77.2555 88.0265 77.2589 87.9875C77.2657 87.9096 77.303 87.8373 77.3623 87.7865C77.4221 87.7356 77.4989 87.7097 77.5774 87.7147C78.1094 87.7514 79.1514 87.7831 79.1604 87.7831C79.2389 87.7831 79.314 87.8141 79.3699 87.8695C79.4253 87.9254 79.4564 88.0005 79.4564 88.079C79.4564 88.1569 79.4253 88.2321 79.3699 88.288C79.314 88.3433 79.2389 88.3744 79.1604 88.3744H79.1423Z" fill="black"/>
<path d="M60.2155 71.3658C55.4247 71.0478 49.7512 70.8518 49.6829 70.8473C49.6439 70.8462 49.606 70.8377 49.5705 70.8213C49.5349 70.8055 49.5033 70.7829 49.4767 70.7547C49.4496 70.7265 49.4293 70.6931 49.4152 70.6564C49.4016 70.6203 49.3954 70.5813 49.3965 70.5429C49.3971 70.5039 49.4056 70.465 49.4208 70.4294C49.4366 70.3938 49.4598 70.3616 49.488 70.3351C49.5163 70.308 49.5501 70.2877 49.5868 70.2741C49.623 70.2605 49.662 70.2543 49.7009 70.256C49.7512 70.256 54.219 70.4108 58.5777 70.67C54.4104 68.9057 51.2438 68.119 46.9713 68.5465C46.8929 68.5544 46.8145 68.5307 46.7535 68.4804C46.6925 68.4307 46.6539 68.3585 46.646 68.2805C46.6382 68.202 46.6618 68.1235 46.7117 68.0625C46.7616 68.0015 46.8337 67.9631 46.9122 67.9552C51.8306 67.4639 55.2976 68.5279 60.3567 70.8021C60.4177 70.8298 60.4668 70.8778 60.4967 70.9377C60.5272 70.9975 60.5357 71.0653 60.5222 71.1308C60.5086 71.1963 60.473 71.2556 60.4216 71.298C60.3697 71.3409 60.3053 71.3646 60.2387 71.3658H60.2155Z" fill="#BAE8FF"/>
<path d="M45.5849 92.6223H65.3857C65.6692 92.6223 65.9409 92.7346 66.1414 92.9351C66.3419 93.1356 66.4548 93.4073 66.4548 93.6908V106.556H44.5157V93.6998C44.5145 93.5592 44.5412 93.4191 44.5944 93.2881C44.6476 93.1576 44.7261 93.0385 44.8256 92.9385C44.925 92.838 45.0433 92.7589 45.1735 92.7041C45.3039 92.6499 45.4437 92.6223 45.5849 92.6223Z" fill="#8CD9FF"/>
<path d="M64.4723 92.6223H65.3821C65.6656 92.6223 65.9378 92.7347 66.1383 92.9352C66.3388 93.1357 66.4512 93.4073 66.4512 93.6908V106.556H63.4258V93.6999C63.4236 93.4192 63.532 93.1481 63.7274 92.9465C63.9234 92.7449 64.1911 92.628 64.4723 92.6223Z" fill="#45AAF7"/>
<path d="M47.4289 102.463H60.5006C60.7344 102.463 60.9592 102.556 61.1247 102.721C61.2902 102.887 61.3828 103.112 61.3828 103.346V106.556H46.5508V103.346C46.5508 103.112 46.6431 102.889 46.8077 102.723C46.9722 102.558 47.1956 102.465 47.4289 102.463Z" fill="#45AAF7"/>
<path d="M48.3304 92.6223H47.7344V106.556H48.3304V92.6223Z" fill="#5865F2"/>
<path d="M60.1935 92.6223H59.5977V106.556H60.1935V92.6223Z" fill="#5865F2"/>
<path d="M60.6423 93.6907H47.2839C46.8769 93.6907 46.5469 94.0205 46.5469 94.4277V99.1846C46.5469 99.5912 46.8769 99.921 47.2839 99.921H60.6423C61.0489 99.921 61.3793 99.5912 61.3793 99.1846V94.4277C61.3793 94.0205 61.0489 93.6907 60.6423 93.6907Z" fill="black"/>
<path d="M63.152 94.6958C63.0729 94.6958 62.9973 94.7269 62.9414 94.7822C62.8849 94.8376 62.8533 94.9127 62.8516 94.9912C62.8527 95.0708 62.8849 95.1465 62.9408 95.2024C62.9973 95.2583 63.0729 95.2905 63.152 95.2916H66.4372V94.6958H63.152Z" fill="#5865F2"/>
<path d="M62.8518 96.2828C62.8529 96.3624 62.8846 96.4381 62.941 96.494C62.9969 96.5499 63.0726 96.5821 63.1517 96.5833H66.4369V95.9739H63.1517C63.1116 95.9739 63.0721 95.9818 63.0348 95.9976C62.9981 96.0128 62.9642 96.036 62.9365 96.0648C62.9083 96.0936 62.8863 96.1281 62.8716 96.1653C62.8574 96.2026 62.8501 96.2427 62.8518 96.2828Z" fill="#5865F2"/>
<path d="M62.8516 97.5744C62.8527 97.6535 62.8849 97.7292 62.9408 97.7856C62.9973 97.8415 63.0729 97.8737 63.152 97.8749H66.4372V97.2791H63.152C63.0729 97.2791 62.9973 97.3101 62.9414 97.3655C62.8849 97.4202 62.8533 97.4959 62.8516 97.5744Z" fill="#5865F2"/>
<path d="M45.0563 94.9908C45.057 95.0303 45.0497 95.0692 45.0352 95.1053C45.0206 95.142 44.9989 95.1747 44.9715 95.2029C44.944 95.2305 44.9112 95.2525 44.8751 95.2677C44.8389 95.283 44.8002 95.2909 44.761 95.2909H44.5156V94.6958H44.761C44.7999 94.6953 44.8386 94.7026 44.8747 94.7173C44.9108 94.7319 44.9437 94.7534 44.9712 94.781C44.9988 94.8086 45.0205 94.8414 45.0351 94.8775C45.0497 94.9136 45.057 94.9519 45.0563 94.9908Z" fill="#5865F2"/>
<path d="M45.0563 96.2824C45.057 96.3218 45.0497 96.3608 45.0352 96.3969C45.0206 96.4335 44.9989 96.4662 44.9715 96.4944C44.944 96.5221 44.9112 96.5441 44.8751 96.5593C44.8389 96.5745 44.8002 96.5824 44.761 96.5824H44.5156V95.9738H44.761C44.801 95.9738 44.8405 95.9817 44.8773 95.9975C44.914 96.0133 44.9472 96.0359 44.9748 96.0647C45.0024 96.094 45.0239 96.1278 45.0379 96.1656C45.0519 96.2028 45.0582 96.2429 45.0563 96.2824Z" fill="#5865F2"/>
<path d="M45.0563 97.574C45.057 97.6135 45.0497 97.6524 45.0352 97.6885C45.0206 97.7246 44.9989 97.7579 44.9715 97.7861C44.944 97.8137 44.9112 97.8357 44.8751 97.851C44.8389 97.8662 44.8002 97.8741 44.761 97.8741H44.5156V97.2791H44.761C44.7999 97.2785 44.8386 97.2858 44.8747 97.2999C44.9108 97.3146 44.9437 97.3366 44.9712 97.3642C44.9988 97.3919 45.0205 97.4246 45.0351 97.4607C45.0497 97.4968 45.057 97.5351 45.0563 97.574Z" fill="#5865F2"/>
<path d="M56.8348 94.1414H48.1082C47.8996 94.1414 47.7305 94.3102 47.7305 94.5186V98.6481C47.7305 98.8565 47.8996 99.0253 48.1082 99.0253H56.8348C57.0432 99.0253 57.2121 98.8565 57.2121 98.6481V94.5186C57.2121 94.3102 57.0432 94.1414 56.8348 94.1414Z" fill="#FFF4B3"/>
<path d="M60.5114 99.0251H58.1321C57.9836 99.0251 57.8633 99.1454 57.8633 99.2934V99.6526C57.8633 99.8011 57.9836 99.9208 58.1321 99.9208H60.5114C60.6599 99.9208 60.7797 99.8011 60.7797 99.6526V99.2934C60.7797 99.1454 60.6599 99.0251 60.5114 99.0251Z" fill="#FF78B9"/>
<path d="M51.2307 94.6959C51.2307 95.4194 51.5181 96.1135 52.0298 96.6251C52.542 97.1374 53.2361 97.4248 53.9601 97.4248C54.6841 97.4248 55.3788 97.1374 55.8904 96.6251C56.4027 96.1135 56.6901 95.4194 56.6901 94.6959C56.6907 94.5096 56.6726 94.3238 56.6354 94.1414H51.2804C51.2454 94.3238 51.2284 94.5096 51.2307 94.6959Z" fill="#29CC7A"/>
<path d="M48.5469 99.0252H53.0011C52.7492 98.6694 52.4149 98.3791 52.0274 98.1792C51.64 97.9787 51.2103 97.8743 50.7743 97.8743C50.3377 97.8743 49.9079 97.9787 49.5205 98.1792C49.1331 98.3791 48.7993 98.6694 48.5469 99.0252Z" fill="#29CC7A"/>
<path d="M34.7229 21.514C34.0038 21.0521 33.392 20.4416 32.9282 19.7243C32.4645 19.0065 32.1596 18.1978 32.0339 17.3529L31.579 14.4422C31.5682 14.3739 31.5334 14.3117 31.4809 14.2671C31.4283 14.2219 31.3615 14.1971 31.2923 14.1965C31.2226 14.1971 31.1552 14.2214 31.1019 14.2666C31.0487 14.3112 31.013 14.3739 31.0012 14.4422L30.5462 17.3529C30.4205 18.1978 30.1156 19.0065 29.6519 19.7243C29.1881 20.4416 28.5762 21.0521 27.8572 21.514L27.4796 21.7552C27.4391 21.7823 27.4059 21.8184 27.3828 21.8614C27.3599 21.9043 27.3478 21.9523 27.3477 22.0008C27.3478 22.0494 27.3599 22.0969 27.3828 22.1398C27.4059 22.1827 27.4391 22.2194 27.4796 22.246L27.8572 22.4916C28.5761 22.953 29.188 23.5624 29.6518 24.2791C30.1156 24.9963 30.4205 25.8039 30.5462 26.6482L31.0012 29.5589C31.0119 29.6284 31.0472 29.6917 31.1006 29.7374C31.154 29.7837 31.222 29.8086 31.2923 29.8091C31.3622 29.8086 31.4296 29.7832 31.4822 29.7374C31.5348 29.6911 31.5691 29.6278 31.579 29.5589L32.0339 26.6482C32.1596 25.8039 32.4645 24.9963 32.9283 24.2791C33.3921 23.5624 34.004 22.953 34.7229 22.4916L35.1005 22.246C35.141 22.2194 35.1742 22.1827 35.1973 22.1398C35.2203 22.0969 35.2323 22.0494 35.2325 22.0008C35.2323 21.9523 35.2203 21.9043 35.1973 21.8614C35.1742 21.8184 35.141 21.7823 35.1005 21.7552L34.7229 21.514Z" fill="#404EED"/>
<path d="M11.5208 70.9809C11.0958 70.7064 10.7341 70.345 10.4595 69.9197C10.185 69.495 10.004 69.0167 9.92839 68.5163L9.67363 66.7927C9.66623 66.752 9.64488 66.7153 9.61337 66.6888C9.5818 66.6622 9.54198 66.6475 9.5007 66.647C9.45947 66.6475 9.41966 66.6622 9.38809 66.6888C9.35652 66.7153 9.33523 66.752 9.32783 66.7927L9.07301 68.5163C8.99745 69.0167 8.81639 69.495 8.54186 69.9197C8.26734 70.345 7.90561 70.7064 7.48064 70.9809L7.2531 71.1266C7.22966 71.143 7.21046 71.165 7.19702 71.1904C7.18357 71.2153 7.17629 71.2435 7.17578 71.2723C7.17629 71.3011 7.18357 71.3288 7.19702 71.3542C7.21046 71.3796 7.22966 71.4011 7.2531 71.418L7.48064 71.5631C7.90561 71.8376 8.26734 72.1996 8.54186 72.6249C8.81639 73.0496 8.99745 73.5279 9.07301 74.0283L9.32783 75.7474C9.33427 75.7886 9.35516 75.8265 9.38679 75.8536C9.41847 75.8813 9.4588 75.8965 9.5007 75.8971C9.54261 75.8965 9.58298 75.8813 9.61461 75.8536C9.64629 75.8265 9.66719 75.7886 9.67363 75.7474L9.92839 74.0283C10.004 73.5279 10.185 73.0496 10.4595 72.6249C10.7341 72.1996 11.0958 71.8376 11.5208 71.5631L11.7483 71.418C11.7717 71.4011 11.791 71.3796 11.8044 71.3542C11.8179 71.3288 11.8251 71.3011 11.8257 71.2723C11.8251 71.2435 11.8179 71.2153 11.8044 71.1904C11.791 71.165 11.7717 71.143 11.7483 71.1266L11.5208 70.9809Z" fill="#FFD751"/>
</svg>
